<svg width="1654" height="481" viewBox="0 0 1654 481" fill="none" xmlns="http://www.w3.org/2000/svg">
<g clip-path="url(#clip0_11705_798)">
<path fill-rule="evenodd" clip-rule="evenodd" d="M1605.55 261.363H1622.51H1638.49C1640.17 261.432 1641.85 261.15 1643.43 260.535C1645 259.92 1646.43 258.985 1647.64 257.788C1648.84 256.59 1649.8 255.154 1650.44 253.568C1651.08 251.983 1651.4 250.281 1651.37 248.567C1651.27 243.161 1651.3 237.743 1651.33 232.322C1651.35 229.61 1651.37 226.897 1651.37 224.184C1651.45 222.732 1651.29 221.276 1650.9 219.877C1650.09 217.228 1648.43 214.932 1646.18 213.356C1643.94 211.781 1641.23 211.017 1638.51 211.187H1605.2C1603.81 211.187 1603.32 210.834 1603.09 209.399C1602.62 206.537 1601.99 203.703 1601.21 200.91C1588.8 155.117 1561.36 122.145 1518.81 102.674C1492.15 90.3864 1462.36 86.9664 1433.68 92.9009C1401.05 98.8465 1371.58 116.454 1350.59 142.548C1319.06 181.187 1308.63 225.595 1320.87 273.957C1333.87 324.863 1365.97 359.019 1414.51 377.054C1430.43 382.655 1447.22 385.217 1464.05 384.611C1493.9 384.237 1522.88 374.245 1546.8 356.072C1576.88 333.733 1597.23 300.375 1603.57 263.05C1603.81 261.741 1604.26 261.363 1605.55 261.363ZM1356.01 170.953C1343.06 191.343 1336.37 215.192 1336.8 239.462C1337.33 271.526 1350.24 302.091 1372.74 324.561C1395.24 347.032 1425.52 359.605 1457.06 359.568C1480.93 359.56 1504.26 352.326 1524.07 338.79C1543.88 325.253 1559.29 306.025 1568.32 283.556C1577.35 261.087 1579.6 236.392 1574.78 212.618C1569.96 188.843 1558.3 167.066 1541.26 150.057C1524.24 133.049 1502.61 121.58 1479.15 117.112C1455.69 112.643 1431.45 115.377 1409.52 124.966C1387.59 134.554 1368.96 150.563 1356.01 170.953Z" fill="url(#paint0_linear_11705_798)"/>
<path fill-rule="evenodd" clip-rule="evenodd" d="M1470.45 341.75C1468.79 342.234 1467.07 342.47 1465.34 342.452C1464.93 342.278 1464.49 342.303 1464.05 342.327C1463.54 342.356 1463.03 342.384 1462.55 342.101C1462.48 341.856 1462.48 341.594 1462.55 341.349C1462.73 340.722 1462.7 340.07 1461.89 340.045C1461.07 340.02 1461.05 340.672 1461.15 341.299L1461.16 341.375C1461.25 341.95 1461.29 342.236 1460.75 342.452C1459.64 342.459 1458.54 342.543 1457.45 342.703C1455.88 342.453 1454.3 342.327 1452.71 342.327C1452.12 342.395 1451.51 342.335 1450.94 342.151C1450.77 341.959 1450.63 341.738 1450.54 341.499C1450.37 341.073 1450.15 340.622 1449.63 340.622C1449.11 340.622 1448.86 341.198 1448.76 341.725C1448.76 341.856 1448.72 341.984 1448.66 342.1C1448.6 342.217 1448.52 342.32 1448.42 342.402C1447.76 342.228 1447.07 342.205 1446.38 342.182H1446.38C1445.47 342.151 1444.56 342.12 1443.71 341.75C1443.27 341.502 1442.8 341.512 1442.34 341.522C1441.9 341.532 1441.47 341.541 1441.07 341.349C1440.69 341.12 1440.28 341.123 1439.85 341.126C1439.44 341.129 1439.02 341.133 1438.6 340.923C1438.23 340.674 1437.82 340.685 1437.4 340.695C1437.02 340.704 1436.64 340.713 1436.29 340.521C1435.14 340.532 1434.01 340.283 1432.98 339.794C1432.79 339.53 1432.63 339.244 1432.51 338.941C1431.3 336.008 1429.7 335.556 1427.16 337.462C1426.9 337.653 1426.61 337.797 1426.3 337.888C1421.92 336.663 1417.68 334.983 1413.64 332.873C1413.36 332.529 1413.14 332.127 1413.03 331.694C1412.97 331.456 1412.87 331.233 1412.73 331.04C1412.58 330.847 1412.4 330.689 1412.19 330.579C1411.97 330.468 1411.74 330.408 1411.5 330.401C1411.26 330.395 1411.02 330.442 1410.8 330.541C1410.22 330.778 1409.57 330.778 1408.98 330.541C1407.56 329.909 1406.22 329.109 1404.99 328.159C1404.3 327.532 1404.74 327.099 1405.17 326.66V326.659C1405.21 326.624 1405.25 326.589 1405.28 326.554C1406.07 325.883 1406.74 325.087 1407.28 324.197C1407.64 323.43 1407.84 322.596 1407.88 321.747C1407.91 320.897 1407.77 320.05 1407.47 319.256C1407.17 318.462 1406.72 317.739 1406.13 317.131C1405.55 316.524 1404.84 316.043 1404.07 315.721C1403.28 315.397 1402.42 315.249 1401.57 315.286C1400.71 315.323 1399.88 315.545 1399.11 315.936C1398.34 316.327 1397.67 316.879 1397.13 317.555C1396.59 318.231 1396.2 319.016 1395.98 319.858C1395.93 320.036 1395.9 320.235 1395.88 320.435C1395.81 320.945 1395.75 321.466 1395.17 321.664C1389.97 317.893 1385.22 313.516 1381.01 308.624C1380.86 308.134 1380.86 307.61 1381.01 307.12C1381.16 306.635 1381.18 306.121 1381.08 305.624C1380.98 305.128 1380.75 304.666 1380.43 304.282C1380.11 303.898 1379.69 303.605 1379.22 303.43C1378.75 303.255 1378.25 303.205 1377.75 303.283C1377.62 303.283 1377.48 303.295 1377.34 303.307C1376.92 303.343 1376.49 303.38 1376.1 303.057C1372.91 299.148 1370.08 294.951 1367.64 290.519C1367.68 290.332 1367.76 290.154 1367.87 289.992C1367.94 289.856 1368.05 289.726 1368.15 289.596C1368.45 289.224 1368.75 288.851 1368.41 288.313C1368.06 287.782 1367.67 287.905 1367.27 288.03C1367.12 288.077 1366.97 288.123 1366.83 288.137C1366.74 288.143 1366.65 288.13 1366.56 288.101C1366.48 288.07 1366.4 288.023 1366.33 287.961C1364.38 284.934 1362.82 281.653 1361.72 278.207C1361.98 277.832 1362.31 277.87 1362.63 277.908C1362.81 277.929 1362.99 277.95 1363.15 277.906C1363.62 277.78 1364.04 277.555 1363.87 276.978C1363.69 276.401 1363.23 276.376 1362.76 276.552C1362.61 276.607 1362.47 276.688 1362.33 276.77C1362.03 276.95 1361.72 277.132 1361.33 277.028C1359.99 274.581 1358.97 271.968 1358.29 269.254C1358.83 268.435 1359.43 268.739 1360 269.033C1360.17 269.116 1360.33 269.199 1360.49 269.254C1362.01 269.644 1363.61 269.456 1365 268.726C1366.39 267.996 1367.47 266.775 1368.03 265.292C1368.6 263.93 1368.68 262.415 1368.27 260.998C1367.87 259.581 1367 258.347 1365.81 257.501C1364.62 256.655 1363.18 256.248 1361.73 256.347C1360.29 256.446 1358.92 257.045 1357.85 258.045C1357.69 258.181 1357.55 258.351 1357.4 258.522C1357.02 258.986 1356.63 259.457 1355.85 259.274C1355.65 259.024 1355.67 258.703 1355.7 258.381C1355.73 257.961 1355.76 257.538 1355.29 257.268C1355.05 256.99 1355.08 256.685 1355.11 256.373C1355.12 256.262 1355.14 256.151 1355.14 256.039C1355.07 255.662 1355.05 255.27 1355.03 254.878C1354.98 254.044 1354.93 253.211 1354.5 252.528L1354.08 249.043C1354.23 248.082 1354.17 247.1 1353.93 246.159C1353.91 246.149 1353.89 246.133 1353.88 246.113C1353.87 246.093 1353.86 246.07 1353.86 246.046C1353.86 246.023 1353.87 246 1353.88 245.98C1353.89 245.96 1353.91 245.944 1353.93 245.934C1353.73 245.012 1353.64 244.069 1353.66 243.125C1353.75 241.452 1353.7 239.772 1353.48 238.11C1353.32 237.502 1353.32 236.862 1353.48 236.254C1354.06 236.086 1354.51 236.336 1354.96 236.587C1355.18 236.709 1355.39 236.832 1355.63 236.906C1356.23 237.099 1356.87 237.097 1357.47 236.899C1358.07 236.702 1358.59 236.319 1358.96 235.804C1359.34 235.29 1359.54 234.669 1359.55 234.031C1359.56 233.392 1359.37 232.766 1359.01 232.242C1358.67 231.679 1358.14 231.252 1357.53 231.029C1356.92 230.806 1356.25 230.8 1355.63 231.013C1355.42 231.075 1355.22 231.196 1355.02 231.317C1354.56 231.59 1354.11 231.864 1353.51 231.465C1353.48 231.411 1353.46 231.351 1353.46 231.289C1353.46 231.228 1353.48 231.167 1353.51 231.114C1353.54 230.732 1353.57 230.418 1353.59 230.13C1353.64 229.521 1353.68 229.031 1353.81 228.28V227.553C1354.03 226.737 1354.08 225.882 1353.95 225.045L1354.39 221.509C1354.48 221.237 1354.5 220.93 1354.52 220.613C1354.55 220.061 1354.59 219.48 1354.94 219.002C1354.97 218.965 1355.01 218.935 1355.05 218.915C1355.09 218.895 1355.14 218.884 1355.19 218.884C1355.23 218.884 1355.28 218.895 1355.32 218.915C1355.36 218.935 1355.4 218.965 1355.43 219.002C1355.77 219.707 1355.98 220.474 1356.02 221.259C1356.31 222.417 1356.97 223.445 1357.9 224.179C1358.83 224.914 1359.97 225.312 1361.14 225.312C1362.32 225.312 1363.46 224.914 1364.38 224.179C1365.31 223.445 1365.97 222.417 1366.26 221.259C1366.54 220.14 1366.47 218.958 1366.05 217.885C1365.63 216.812 1364.88 215.904 1363.92 215.29C1362.87 214.685 1361.66 214.448 1360.47 214.615C1359.28 214.783 1358.17 215.347 1357.33 216.218C1357.1 216.449 1356.92 216.733 1356.74 217.017C1356.43 217.506 1356.12 217.993 1355.53 218.199C1354.96 217.848 1355.11 217.372 1355.33 216.895C1355.62 216.586 1355.6 216.204 1355.58 215.824C1355.56 215.495 1355.54 215.168 1355.73 214.889C1356.35 211.294 1357.31 207.767 1358.59 204.357C1360.22 199.03 1362.32 193.861 1364.85 188.91C1364.91 188.79 1364.97 188.661 1365.02 188.531C1365.21 188.064 1365.4 187.576 1365.97 187.38C1366.55 187.925 1366.45 188.54 1366.34 189.204C1366.31 189.427 1366.27 189.655 1366.26 189.888C1366.13 191.051 1366.34 192.226 1366.86 193.271C1367.38 194.317 1368.18 195.188 1369.17 195.781C1370.16 196.413 1371.33 196.716 1372.5 196.648C1373.67 196.581 1374.79 196.146 1375.71 195.405C1376.64 194.681 1377.33 193.687 1377.69 192.553C1378.05 191.42 1378.06 190.202 1377.73 189.061C1377.48 188.086 1376.98 187.192 1376.3 186.462C1375.62 185.732 1374.76 185.191 1373.82 184.888C1372.87 184.585 1371.87 184.53 1370.89 184.73C1369.92 184.929 1369.01 185.375 1368.26 186.027C1368.09 186.152 1367.94 186.312 1367.78 186.472C1367.32 186.955 1366.84 187.45 1365.99 187.055C1367.12 184.264 1368.61 181.641 1370.43 179.256C1373.31 179.532 1373.81 178.83 1372.7 175.846C1373.5 174.481 1374.46 173.218 1375.56 172.084C1376.41 172.192 1376.42 172.777 1376.43 173.33C1376.44 173.548 1376.44 173.762 1376.5 173.94C1376.8 174.921 1377.46 175.75 1378.34 176.265C1379.21 176.781 1380.25 176.945 1381.24 176.725C1382.23 176.506 1383.11 175.919 1383.69 175.079C1384.28 174.239 1384.54 173.207 1384.41 172.184C1384.21 171.222 1383.69 170.356 1382.95 169.721C1382.21 169.086 1381.29 168.717 1380.32 168.674C1380.16 168.674 1380 168.704 1379.83 168.735C1379.37 168.819 1378.9 168.905 1378.54 168.373C1380.46 165.712 1382.72 163.332 1385.28 161.301C1385.88 161.172 1386.17 161.561 1386.45 161.936C1386.55 162.068 1386.65 162.199 1386.76 162.304C1387.12 162.704 1387.55 163.023 1388.04 163.242C1388.53 163.46 1389.06 163.573 1389.6 163.573C1390.13 163.573 1390.66 163.46 1391.14 163.242C1391.63 163.023 1392.07 162.704 1392.43 162.304C1392.83 161.923 1393.15 161.455 1393.35 160.934C1393.55 160.412 1393.64 159.852 1393.6 159.293C1393.56 158.735 1393.39 158.192 1393.12 157.706C1392.84 157.221 1392.47 156.804 1392.01 156.487C1391.94 156.421 1391.86 156.364 1391.78 156.307C1391.55 156.146 1391.32 155.985 1391.32 155.634C1397.04 150.642 1403.38 146.427 1410.16 143.096C1410.72 143.229 1410.93 143.679 1411.14 144.129C1411.2 144.273 1411.27 144.417 1411.35 144.55C1412.04 146.025 1413.27 147.162 1414.79 147.712C1416.3 148.262 1417.96 148.179 1419.42 147.484C1420.85 146.837 1421.98 145.662 1422.6 144.196C1423.21 142.731 1423.25 141.083 1422.72 139.585C1422.68 139.449 1422.63 139.314 1422.57 139.178C1422.39 138.71 1422.21 138.235 1422.57 137.729L1425.7 136.551C1426.19 136.73 1426.4 137.131 1426.62 137.54C1426.67 137.645 1426.73 137.752 1426.79 137.855C1427.1 138.653 1427.7 139.295 1428.47 139.642C1429.24 139.99 1430.12 140.014 1430.91 139.711C1431.3 139.536 1431.67 139.283 1431.97 138.966C1432.27 138.649 1432.5 138.274 1432.66 137.862C1432.82 137.451 1432.89 137.012 1432.88 136.572C1432.87 136.132 1432.76 135.698 1432.58 135.297C1432.56 135.106 1432.56 134.912 1432.58 134.72L1437.15 133.718C1437.46 133.485 1437.83 133.492 1438.19 133.499C1438.53 133.505 1438.87 133.511 1439.17 133.316L1440.28 133.015C1440.6 133.323 1440.73 133.714 1440.87 134.108C1440.94 134.325 1441.01 134.541 1441.12 134.745C1441.34 135.371 1441.77 135.899 1442.33 136.237C1442.9 136.576 1443.56 136.704 1444.2 136.601C1444.88 136.521 1445.51 136.21 1446 135.718C1446.48 135.227 1446.79 134.583 1446.86 133.893C1446.86 133.316 1446.86 132.689 1447.24 132.213L1449.55 131.887C1450.99 132.075 1452.44 132.075 1453.87 131.887H1454.76C1454.76 132.511 1454.41 132.931 1454.06 133.357C1453.91 133.53 1453.77 133.704 1453.65 133.893C1452.87 134.911 1452.49 136.189 1452.59 137.475C1452.69 138.762 1453.26 139.963 1454.19 140.844C1455.12 141.724 1456.34 142.22 1457.6 142.233C1458.87 142.246 1460.1 141.776 1461.05 140.914C1462.03 140.151 1462.69 139.043 1462.9 137.808C1463.12 136.574 1462.87 135.302 1462.21 134.244C1462.13 134.093 1462.04 133.949 1461.94 133.806C1461.65 133.355 1461.35 132.91 1461.62 132.263C1462.67 132 1463.75 131.923 1464.82 132.037C1465.49 131.961 1466.17 132.013 1466.82 132.188C1466.86 132.159 1466.9 132.144 1466.94 132.144C1466.99 132.144 1467.03 132.159 1467.07 132.188C1467.89 132.365 1468.74 132.415 1469.58 132.338L1470.3 132.514C1470.71 132.81 1471.17 132.788 1471.63 132.766C1472.02 132.748 1472.41 132.729 1472.76 132.915L1480.98 134.695L1482.48 134.971C1482.65 135.235 1482.79 135.522 1482.88 135.824C1483.57 137.479 1484.41 137.679 1485.67 136.476C1485.75 136.405 1485.83 136.325 1485.91 136.245C1486.05 136.099 1486.19 135.955 1486.38 135.874L1489.02 136.927C1489.74 140.889 1491.61 141.265 1494.22 138.557C1495.16 139.369 1496.33 139.868 1497.55 139.986C1498.66 140.283 1499.64 140.887 1500.62 141.495C1501.71 142.174 1502.81 142.856 1504.11 143.121C1503.88 143.597 1503.57 144.025 1503.26 144.454C1502.62 145.36 1501.97 146.265 1501.97 147.61C1501.87 148.829 1502.19 150.046 1502.89 151.043C1503.59 152.04 1504.61 152.753 1505.78 153.054C1506.95 153.356 1508.18 153.226 1509.26 152.688C1510.34 152.15 1511.2 151.239 1511.69 150.117C1511.79 149.912 1511.87 149.691 1511.95 149.469C1512.13 148.958 1512.3 148.443 1512.82 148.111L1517.14 151.196C1517.2 151.716 1517.09 152.242 1516.84 152.7C1516.63 153.15 1516.58 153.664 1516.7 154.148C1516.83 154.631 1517.12 155.052 1517.53 155.333C1517.95 155.649 1518.47 155.8 1518.99 155.759C1519.51 155.717 1520 155.486 1520.37 155.107C1520.44 155.043 1520.5 154.974 1520.57 154.905C1520.81 154.65 1521.06 154.389 1521.45 154.33C1524.92 157.038 1528.19 159.996 1531.25 163.182C1530.99 163.712 1530.53 163.776 1530.07 163.839C1529.9 163.863 1529.73 163.887 1529.57 163.934C1528.44 164.259 1527.45 164.96 1526.76 165.924C1526.08 166.888 1525.73 168.06 1525.77 169.25C1525.87 170.395 1526.32 171.478 1527.06 172.347C1527.8 173.216 1528.79 173.826 1529.89 174.09C1531.04 174.319 1532.23 174.146 1533.27 173.6C1534.3 173.054 1535.13 172.166 1535.61 171.081C1535.71 170.882 1535.78 170.663 1535.84 170.444C1535.98 169.974 1536.12 169.507 1536.62 169.25C1541.66 175.252 1546.01 181.824 1549.57 188.835C1549.17 189.326 1548.76 189.154 1548.37 188.991C1548.18 188.912 1548 188.835 1547.82 188.835C1546.61 188.424 1545.29 188.493 1544.13 189.027C1542.97 189.562 1542.05 190.524 1541.56 191.719C1541.09 192.96 1541.09 194.329 1541.54 195.574C1542 196.819 1542.87 197.854 1544.02 198.49C1545.2 199.069 1546.54 199.171 1547.79 198.775C1549.04 198.379 1550.09 197.515 1550.73 196.358C1550.87 196.134 1550.97 195.882 1551.07 195.631C1551.29 195.093 1551.51 194.558 1552.11 194.302C1552.69 195.822 1553.29 197.26 1553.88 198.694V198.697C1554.26 199.626 1554.64 200.552 1555.02 201.499C1554.86 201.933 1554.5 202.132 1554.13 202.332C1553.99 202.409 1553.84 202.486 1553.72 202.577C1553.1 202.935 1552.62 203.503 1552.37 204.182C1552.13 204.86 1552.12 205.606 1552.36 206.288C1552.59 206.942 1553.04 207.491 1553.63 207.836C1554.22 208.181 1554.92 208.299 1555.59 208.169C1555.73 208.169 1555.87 208.147 1556.01 208.125C1556.37 208.069 1556.73 208.014 1557.05 208.319C1557.9 210.704 1558.53 213.163 1558.95 215.667C1558.8 216.211 1558.39 216.269 1557.98 216.327C1557.83 216.349 1557.68 216.37 1557.54 216.419C1556.81 216.593 1556.17 217.042 1555.76 217.675C1555.34 218.308 1555.18 219.078 1555.29 219.829C1555.35 220.592 1555.7 221.302 1556.26 221.812C1556.82 222.322 1557.55 222.591 1558.3 222.562C1558.43 222.562 1558.55 222.555 1558.68 222.548C1559.19 222.521 1559.71 222.491 1560.13 222.913L1560.52 226.149C1560.16 226.902 1559.51 226.968 1558.82 227.039C1558.56 227.065 1558.31 227.091 1558.05 227.151C1557.03 227.329 1556.07 227.764 1555.26 228.417C1554.45 229.071 1553.82 229.921 1553.41 230.89C1553.01 231.86 1552.86 232.917 1552.96 233.964C1553.06 235.01 1553.42 236.014 1554.01 236.881C1554.55 237.658 1555.24 238.314 1556.03 238.806C1556.83 239.298 1557.72 239.616 1558.65 239.74C1558.72 239.74 1558.8 239.738 1558.88 239.737C1559.55 239.725 1560.3 239.711 1560.67 240.517V245.859L1560.45 246.561C1560.17 247.033 1560.19 247.556 1560.21 248.08C1560.23 248.529 1560.25 248.978 1560.08 249.394C1560.26 250.668 1560.14 251.969 1559.71 253.181C1559.4 253.648 1559.44 254.151 1559.47 254.657C1559.49 254.884 1559.5 255.112 1559.49 255.337C1559.52 255.386 1559.53 255.442 1559.53 255.5C1559.53 255.558 1559.52 255.615 1559.49 255.663C1559.16 255.974 1559.18 256.364 1559.2 256.751C1559.23 257.085 1559.25 257.416 1559.04 257.694C1558.77 258.028 1558.78 258.418 1558.8 258.805C1558.82 259.145 1558.83 259.482 1558.65 259.776L1558.03 262.76C1557.58 262.859 1557.19 262.686 1556.8 262.513C1556.59 262.424 1556.39 262.335 1556.18 262.283C1555.2 261.951 1554.13 262.028 1553.2 262.498C1552.28 262.969 1551.58 263.793 1551.25 264.791C1550.92 265.788 1551 266.877 1551.46 267.818C1551.92 268.758 1552.74 269.474 1553.72 269.806C1553.91 269.895 1554.13 269.954 1554.35 270.012C1554.86 270.152 1555.39 270.294 1555.69 270.86L1552.06 280.062C1551.49 279.862 1551.3 279.386 1551.1 278.91C1551.03 278.729 1550.95 278.548 1550.86 278.382C1550.43 277.478 1549.69 276.765 1548.78 276.381C1547.87 275.996 1546.85 275.968 1545.92 276.301C1545.01 276.667 1544.24 277.331 1543.74 278.189C1543.24 279.047 1543.04 280.051 1543.16 281.04C1543.39 282.036 1543.95 282.92 1544.75 283.538C1545.56 284.156 1546.54 284.47 1547.55 284.426C1547.75 284.426 1547.96 284.374 1548.17 284.322H1548.17C1548.75 284.178 1549.34 284.034 1549.67 284.952L1547.75 288.764C1544.76 288.764 1544.54 289.115 1545.6 292.6C1543.04 296.863 1540.16 300.912 1536.97 304.712C1536.52 305.003 1536.17 305.434 1535.98 305.941C1531.07 311.842 1525.5 317.136 1519.38 321.714C1519.31 321.782 1519.21 321.83 1519.11 321.856C1519.01 321.882 1518.91 321.884 1518.81 321.862C1518.71 321.84 1518.62 321.795 1518.54 321.73C1518.45 321.665 1518.39 321.583 1518.35 321.488C1518.06 320.819 1518.29 320.228 1518.51 319.629C1518.54 319.555 1518.56 319.481 1518.59 319.407C1518.9 318.261 1518.83 317.043 1518.38 315.945C1517.93 314.846 1517.14 313.93 1516.13 313.339C1515.09 312.781 1513.91 312.572 1512.75 312.744C1511.59 312.915 1510.52 313.457 1509.69 314.291C1508.92 315.1 1508.42 316.138 1508.28 317.252C1508.13 318.367 1508.34 319.5 1508.88 320.485C1509.44 321.569 1510.34 322.427 1511.44 322.923C1512.54 323.42 1513.78 323.523 1514.94 323.219C1515.42 323.036 1515.93 322.951 1516.45 322.968C1516.74 322.968 1517.01 323.194 1516.94 323.57C1513.81 325.924 1510.51 328.037 1507.07 329.889C1506.21 329.889 1506.16 329.036 1506.14 328.409C1506.16 327.695 1505.94 326.995 1505.51 326.427C1505.08 325.858 1504.48 325.456 1503.8 325.289C1503.11 325.121 1502.39 325.197 1501.76 325.505C1501.13 325.813 1500.62 326.334 1500.31 326.98C1499.58 328.435 1499.92 329.488 1501.48 331.118C1501.57 331.203 1501.66 331.295 1501.75 331.393C1502.27 331.999 1501.92 332.271 1501.56 332.546C1501.4 332.669 1501.24 332.793 1501.15 332.948L1492.97 336.208C1492.76 336.208 1492.57 336.268 1492.37 336.327C1491.98 336.443 1491.6 336.558 1491.24 336.208C1491.24 335.739 1491.42 335.373 1491.6 335C1491.67 334.854 1491.74 334.708 1491.8 334.553C1492 334.172 1492.11 333.756 1492.15 333.328C1492.18 332.901 1492.13 332.471 1492 332.065C1491.86 331.658 1491.65 331.283 1491.37 330.961C1491.09 330.639 1490.76 330.377 1490.38 330.19C1489.68 329.817 1488.88 329.726 1488.12 329.936C1487.36 330.145 1486.71 330.639 1486.31 331.318C1485.84 332.003 1485.66 332.846 1485.79 333.666C1485.94 334.486 1486.38 335.219 1487.05 335.707C1487.35 335.953 1487.68 336.163 1488.03 336.333C1488.16 336.446 1488.32 336.525 1488.48 336.604C1488.9 336.804 1489.31 336.998 1488.99 337.738H1488.26C1487.41 337.924 1486.58 338.193 1485.79 338.54C1485.38 338.61 1485 338.76 1484.62 338.91C1484.04 339.136 1483.46 339.363 1482.8 339.317C1482.22 339.48 1481.61 339.48 1481.03 339.317C1480.59 338.779 1480.8 338.296 1481.01 337.816C1481.08 337.649 1481.16 337.48 1481.2 337.311C1481.67 335.863 1481.61 334.292 1481.03 332.884C1480.46 331.476 1479.41 330.324 1478.07 329.638C1476.77 328.932 1475.27 328.702 1473.82 328.986C1472.38 329.27 1471.07 330.051 1470.13 331.198C1469.18 332.345 1468.65 333.788 1468.63 335.285C1468.61 336.782 1469.09 338.241 1470 339.418C1470.11 339.62 1470.25 339.807 1470.39 339.988C1470.8 340.526 1471.18 341.019 1470.45 341.75ZM1479.13 145.98C1480.63 151.848 1485.15 154.581 1489.98 152.675C1490.92 152.301 1491.77 151.709 1492.45 150.945C1493.04 150.243 1493.46 150.168 1494.34 150.594C1495.97 151.371 1496.08 151.948 1494.96 153.402C1493.82 154.989 1493.24 156.921 1493.31 158.885C1493.39 160.849 1494.11 162.731 1495.37 164.225C1496.62 165.72 1498.33 166.739 1500.23 167.119C1502.13 167.499 1504.1 167.216 1505.81 166.317C1507.02 165.665 1507.57 165.865 1508.28 166.944C1508.61 167.431 1509.22 167.81 1509.85 168.2C1510.62 168.674 1511.41 169.163 1511.74 169.878C1512.05 170.579 1511.96 171.366 1511.86 172.183C1511.78 172.885 1511.69 173.609 1511.86 174.316C1512.14 175.586 1512.7 176.775 1513.49 177.799C1514.29 178.822 1515.29 179.654 1516.44 180.235C1517.59 180.815 1518.85 181.13 1520.13 181.156C1521.41 181.182 1522.68 180.918 1523.85 180.385C1526.56 179.131 1528.21 179.858 1529.1 182.641C1529.69 184.274 1530.64 185.743 1531.89 186.93C1530.71 187.763 1529.78 188.9 1529.18 190.222C1528.59 191.544 1528.34 193.004 1528.48 194.453C1528.58 195.637 1528.94 196.785 1529.54 197.803C1530.15 198.821 1530.97 199.683 1531.96 200.32C1532.78 200.897 1533.07 201.223 1532.58 202.276C1531.88 203.648 1531.62 205.204 1531.82 206.734C1532.02 208.263 1532.68 209.693 1533.71 210.827C1534.33 211.605 1534.23 212.006 1533.71 212.758C1532.49 214.45 1531.97 216.563 1532.26 218.641C1532.56 220.72 1533.65 222.596 1535.29 223.867L1535.44 223.992C1535.94 225.784 1537 227.278 1538.07 228.775C1539.29 230.503 1540.52 232.233 1540.89 234.424C1540.89 234.863 1540.72 235.182 1540.55 235.498C1540.49 235.615 1540.43 235.731 1540.37 235.853C1539.89 236.828 1539.63 237.907 1539.63 239C1539.63 240.094 1539.89 241.172 1540.37 242.147C1540.57 242.57 1540.68 243.033 1540.68 243.502C1540.68 243.971 1540.57 244.433 1540.37 244.856C1539.91 247.61 1538.41 250.07 1536.18 251.702C1535.14 252.51 1534.36 253.605 1533.93 254.855C1533.49 256.105 1533.41 257.457 1533.71 258.748L1533.72 258.763C1533.86 259.906 1533.93 260.429 1532.45 260.553C1531.14 260.608 1529.86 260.974 1528.7 261.621C1527.55 262.267 1526.56 263.177 1525.81 264.279C1525.07 265.381 1524.58 266.645 1524.4 267.969C1524.22 269.294 1524.34 270.644 1524.76 271.913C1524.89 272.208 1524.94 272.536 1524.89 272.856C1524.84 273.177 1524.7 273.476 1524.49 273.719L1524.36 273.869C1523.32 277.438 1521.65 280.786 1519.43 283.749C1519.07 284.18 1518.82 284.699 1518.7 285.256C1518.59 285.814 1518.62 286.391 1518.79 286.934C1519.6 289.266 1518.62 290.193 1516.67 291.272C1515.55 291.904 1514.64 292.85 1514.03 293.997C1513.43 295.144 1513.16 296.445 1513.26 297.741C1513.26 299.221 1512.87 299.572 1511.51 299.748C1510.25 299.904 1509.05 300.387 1508.03 301.151C1507 301.915 1506.19 302.934 1505.67 304.111C1505.2 305.064 1504.9 305.289 1503.84 304.913C1502.39 304.309 1500.8 304.173 1499.27 304.522C1497.74 304.872 1496.36 305.692 1495.31 306.869C1494.62 307.571 1494.25 307.571 1493.41 307.095C1492.51 306.528 1491.51 306.151 1490.47 305.985C1489.42 305.819 1488.36 305.869 1487.34 306.131C1486.31 306.393 1485.35 306.862 1484.51 307.511C1483.67 308.159 1482.96 308.972 1482.44 309.903C1482.07 310.512 1481.5 310.96 1480.83 311.157C1478.9 311.766 1477.24 313.044 1476.14 314.768C1475.5 315.462 1474.7 315.983 1473.8 316.285C1472.91 316.587 1471.96 316.66 1471.04 316.499C1469.92 316.046 1468.72 315.889 1467.52 316.043C1466.33 316.196 1465.2 316.655 1464.23 317.376C1463.92 317.585 1463.57 317.721 1463.2 317.773C1462.83 317.825 1462.46 317.792 1462.11 317.677C1459.02 317.391 1456.14 315.953 1454.02 313.64C1452.82 312.404 1451.23 311.628 1449.53 311.445C1447.84 311.263 1446.13 311.684 1444.69 312.637C1444.35 312.935 1443.92 313.099 1443.46 313.099C1443.01 313.099 1442.57 312.935 1442.23 312.637C1441.05 311.756 1439.66 311.214 1438.2 311.068C1436.74 310.923 1435.27 311.178 1433.94 311.809C1433.89 311.83 1433.85 311.851 1433.8 311.872C1433.77 311.884 1433.75 311.897 1433.72 311.909C1433.19 312.157 1432.75 312.358 1432.17 311.584C1427.87 305.841 1423.04 305.164 1417.37 309.427H1416.95C1416.74 307.861 1416.1 306.388 1415.09 305.183C1414.09 303.979 1412.76 303.093 1411.27 302.631C1410.61 302.406 1410.56 301.977 1410.51 301.454C1410.5 301.41 1410.49 301.366 1410.49 301.321C1410.49 301.306 1410.49 301.292 1410.49 301.277C1410.44 298.951 1409.57 296.719 1408.03 294.995C1406.5 293.271 1404.4 292.171 1402.13 291.899C1401.14 291.698 1400.81 291.322 1400.77 290.269C1400.75 288.809 1400.37 287.378 1399.64 286.119C1398.91 284.86 1397.87 283.818 1396.62 283.097C1396.27 282.899 1395.98 282.597 1395.79 282.231C1395.61 281.864 1395.54 281.449 1395.59 281.041C1395.78 278.831 1395.12 276.632 1393.73 274.916C1392.35 273.199 1390.36 272.103 1388.19 271.863C1387.72 271.795 1387.28 271.62 1386.9 271.35C1386.51 271.08 1386.2 270.724 1385.97 270.308C1385.79 270.032 1385.61 269.76 1385.43 269.489V269.488C1383.97 267.301 1382.59 265.232 1383.03 262.309C1383.05 261.772 1382.94 261.239 1382.71 260.752C1382.49 260.265 1382.16 259.836 1381.75 259.5C1381.15 258.923 1380.69 258.226 1380.37 257.452C1380.06 256.679 1379.9 255.848 1379.92 255.012C1379.85 254.735 1379.83 254.444 1379.88 254.161C1379.94 253.878 1380.05 253.611 1380.22 253.382V253.206C1381.18 251.149 1381.62 248.883 1381.5 246.611C1381.56 245.676 1381.94 244.788 1382.34 243.88C1382.85 242.718 1383.37 241.521 1383.23 240.141C1383.14 238.956 1382.8 237.804 1382.22 236.768C1381.65 235.733 1380.85 234.838 1379.9 234.148C1379.06 233.546 1378.74 233.095 1379.14 231.967C1379.67 230.476 1379.75 228.855 1379.36 227.318C1378.96 225.782 1378.12 224.403 1376.94 223.365C1376.27 222.713 1376.23 222.362 1376.82 221.635C1377.8 220.589 1378.46 219.279 1378.73 217.86C1378.99 216.442 1378.85 214.975 1378.32 213.636C1377.98 212.708 1377.98 212.332 1378.94 211.906C1380.5 211.331 1381.83 210.247 1382.72 208.822C1383.61 207.398 1384.02 205.714 1383.87 204.032C1383.87 203.053 1384.12 202.627 1385.08 202.427C1386.59 202.17 1387.99 201.444 1389.07 200.348C1390.16 199.252 1390.88 197.841 1391.15 196.308C1391.18 195.992 1391.3 195.691 1391.49 195.436C1391.67 195.181 1391.92 194.98 1392.21 194.854C1393.44 194.258 1394.29 193.227 1395.12 192.205C1395.54 191.677 1395.97 191.152 1396.45 190.691C1397.17 189.997 1398.1 189.757 1399.06 189.513C1399.96 189.281 1400.89 189.045 1401.65 188.409C1403.1 187.218 1404.13 185.582 1404.59 183.747C1405.05 181.913 1404.91 179.977 1404.19 178.228C1403.7 177.05 1403.88 176.799 1405.03 176.423C1406.8 175.945 1408.35 174.871 1409.44 173.375C1410.52 171.88 1411.08 170.054 1411 168.197C1411 167.245 1411.18 166.518 1412.11 166.141C1412.29 166.062 1412.45 165.942 1412.58 165.79C1413.4 164.73 1414.44 163.869 1415.62 163.27C1416.81 162.671 1418.11 162.35 1419.44 162.33C1419.99 162.268 1420.52 162.088 1421 161.803C1421.48 161.518 1421.9 161.134 1422.23 160.675C1424.13 158.368 1426.25 158.393 1429.03 158.995C1432.69 159.734 1436.4 160.187 1440.13 160.349C1441.42 160.348 1442.67 159.971 1443.75 159.264C1444.82 158.557 1445.67 157.549 1446.2 156.362C1446.65 155.559 1447.01 155.233 1448 155.484C1449.45 155.888 1450.98 155.846 1452.4 155.364C1453.83 154.882 1455.08 153.981 1455.99 152.776C1456.61 152.024 1456.93 151.923 1457.82 152.45C1458.83 153.138 1459.99 153.574 1461.19 153.724C1462.4 153.874 1463.63 153.734 1464.77 153.314C1465.92 152.894 1466.95 152.207 1467.78 151.308C1468.62 150.409 1469.24 149.323 1469.58 148.136C1469.6 148.08 1469.62 148.025 1469.64 147.972C1469.87 147.294 1470.01 146.901 1470.97 147.134C1474.51 148.136 1475.35 147.986 1479.13 145.98ZM1475.55 140.982C1476.08 140.447 1476.39 139.719 1476.39 138.959C1476.39 138.402 1476.22 137.858 1475.91 137.397C1475.61 136.935 1475.17 136.576 1474.66 136.364C1474.16 136.152 1473.6 136.097 1473.06 136.205C1472.53 136.313 1472.03 136.58 1471.64 136.972C1471.25 137.364 1470.99 137.865 1470.88 138.41C1470.76 138.956 1470.81 139.522 1471.02 140.04C1471.22 140.557 1471.57 141.001 1472.02 141.318C1472.47 141.634 1473.01 141.808 1473.55 141.818C1474.3 141.818 1475.02 141.517 1475.55 140.982ZM1433.61 148.793C1433.08 148.256 1432.35 147.949 1431.6 147.937C1430.85 147.988 1430.15 148.328 1429.64 148.886C1429.12 149.445 1428.84 150.182 1428.84 150.946C1428.86 151.325 1428.95 151.696 1429.11 152.039C1429.27 152.382 1429.49 152.688 1429.77 152.942C1430.05 153.196 1430.37 153.392 1430.72 153.519C1431.08 153.645 1431.45 153.7 1431.82 153.679C1432.53 153.624 1433.2 153.3 1433.7 152.772C1434.19 152.244 1434.47 151.548 1434.49 150.821C1434.46 150.055 1434.15 149.329 1433.61 148.793ZM1412.14 155.01C1412.21 156.001 1412.08 156.996 1411.75 157.933C1411.43 158.87 1410.92 159.731 1410.26 160.461C1409.59 161.192 1408.79 161.777 1407.9 162.182C1407.01 162.586 1406.04 162.801 1405.07 162.812C1404.09 162.824 1403.12 162.634 1402.22 162.251C1401.32 161.869 1400.5 161.303 1399.82 160.589C1399.14 159.875 1398.61 159.027 1398.27 158.098C1397.92 157.169 1397.77 156.178 1397.81 155.185C1397.89 153.324 1398.67 151.566 1399.99 150.271C1401.31 148.976 1403.06 148.241 1404.89 148.219C1406.72 148.197 1408.5 148.887 1409.84 150.15C1411.19 151.413 1412.01 153.151 1412.14 155.01ZM1557.57 255.083C1558.87 253.737 1559.61 251.934 1559.64 250.048C1559.63 249.077 1559.43 248.118 1559.05 247.226C1558.68 246.333 1558.14 245.525 1557.45 244.847C1556.77 244.169 1555.96 243.635 1555.07 243.275C1554.19 242.915 1553.24 242.737 1552.29 242.75C1551.34 242.766 1550.4 242.974 1549.53 243.363C1548.66 243.752 1547.88 244.312 1547.22 245.013C1546.56 245.713 1546.06 246.539 1545.72 247.442C1545.38 248.346 1545.23 249.308 1545.26 250.273C1545.28 251.229 1545.5 252.171 1545.88 253.042C1546.27 253.914 1546.82 254.699 1547.51 255.35C1548.2 256.001 1549.01 256.507 1549.9 256.836C1550.78 257.166 1551.72 257.313 1552.66 257.27C1554.51 257.211 1556.27 256.428 1557.57 255.083ZM1381.5 276.729C1381.46 278.698 1380.67 280.573 1379.29 281.951C1377.9 283.33 1376.04 284.102 1374.1 284.101C1372.14 284.071 1370.27 283.25 1368.91 281.818C1367.54 280.386 1366.79 278.461 1366.82 276.466C1366.84 274.471 1367.66 272.569 1369.06 271.179C1370.47 269.79 1372.37 269.026 1374.33 269.056C1376.28 269.115 1378.13 269.954 1379.47 271.391C1380.82 272.828 1381.55 274.746 1381.5 276.729ZM1464.95 330.268C1464.97 331.237 1464.8 332.201 1464.46 333.105C1464.11 334.008 1463.6 334.833 1462.94 335.533C1462.27 336.232 1461.48 336.791 1460.61 337.179C1459.74 337.567 1458.8 337.774 1457.84 337.791C1456.37 337.851 1454.91 337.461 1453.66 336.672C1452.4 335.883 1451.41 334.73 1450.8 333.361C1450.2 331.993 1450.01 330.472 1450.26 328.993C1450.51 327.515 1451.19 326.146 1452.21 325.064C1453.23 323.981 1454.55 323.235 1455.99 322.919C1457.43 322.604 1458.94 322.734 1460.31 323.294C1461.68 323.853 1462.85 324.816 1463.68 326.059C1464.5 327.301 1464.94 328.767 1464.95 330.268ZM1532.44 301.556C1533.26 301.859 1534.14 301.987 1535.02 301.931C1536.71 301.925 1538.33 301.238 1539.53 300.022C1540.73 298.805 1541.4 297.157 1541.41 295.436C1541.39 293.715 1540.7 292.07 1539.51 290.845C1538.33 289.621 1536.72 288.912 1535.02 288.867C1534.14 288.811 1533.26 288.939 1532.44 289.243C1531.61 289.546 1530.86 290.018 1530.21 290.63C1529.57 291.242 1529.06 291.981 1528.71 292.801C1528.36 293.621 1528.19 294.505 1528.19 295.399C1528.19 296.292 1528.36 297.177 1528.71 297.997C1529.06 298.817 1529.57 299.556 1530.21 300.168C1530.86 300.78 1531.61 301.252 1532.44 301.556ZM1389.4 299.173C1390.33 299.169 1391.25 299.445 1392.03 299.966C1392.81 300.488 1393.43 301.232 1393.79 302.105C1394.16 302.979 1394.27 303.944 1394.1 304.879C1393.93 305.814 1393.5 306.679 1392.85 307.365C1392.2 308.05 1391.37 308.527 1390.46 308.735C1389.55 308.944 1388.6 308.874 1387.72 308.535C1386.85 308.196 1386.09 307.603 1385.55 306.83C1385.01 306.058 1384.69 305.138 1384.66 304.189C1384.66 302.893 1385.15 301.646 1386.04 300.712C1386.92 299.776 1388.12 299.225 1389.4 299.173ZM1430.73 330.673C1431.25 329.866 1431.51 328.921 1431.5 327.959C1431.44 326.711 1430.93 325.53 1430.05 324.649C1429.18 323.768 1428.02 323.249 1426.79 323.194C1425.84 323.185 1424.92 323.462 1424.13 323.991C1423.33 324.52 1422.71 325.277 1422.35 326.165C1421.98 327.052 1421.89 328.031 1422.07 328.975C1422.25 329.919 1422.71 330.786 1423.38 331.465C1424.05 332.144 1424.91 332.604 1425.84 332.786C1426.77 332.968 1427.73 332.864 1428.6 332.488C1429.47 332.112 1430.22 331.48 1430.73 330.673ZM1446.35 334.781C1446.32 335.691 1446.02 336.569 1445.49 337.307C1444.97 338.045 1444.24 338.608 1443.4 338.927C1442.56 339.245 1441.65 339.304 1440.78 339.096C1439.91 338.888 1439.12 338.423 1438.5 337.759C1437.89 337.095 1437.48 336.262 1437.34 335.364C1437.19 334.466 1437.31 333.544 1437.67 332.713C1438.04 331.883 1438.64 331.182 1439.4 330.698C1440.16 330.213 1441.04 329.968 1441.94 329.991C1443.14 330.056 1444.27 330.591 1445.09 331.484C1445.91 332.376 1446.36 333.558 1446.35 334.781ZM1375.39 297.326C1375.95 297.542 1376.54 297.642 1377.14 297.618C1378.04 297.608 1378.93 297.323 1379.67 296.802C1380.42 296.281 1381 295.545 1381.33 294.689C1381.66 293.834 1381.74 292.896 1381.55 291.996C1381.36 291.097 1380.9 290.275 1380.25 289.637C1379.6 288.998 1378.77 288.572 1377.88 288.411C1376.99 288.251 1376.07 288.363 1375.25 288.735C1374.42 289.107 1373.72 289.721 1373.23 290.499C1372.75 291.277 1372.5 292.184 1372.53 293.104C1372.53 293.712 1372.65 294.314 1372.88 294.873C1373.12 295.432 1373.45 295.938 1373.89 296.36C1374.32 296.781 1374.83 297.11 1375.39 297.326ZM1354.64 249.045C1354.58 248.515 1354.63 247.978 1354.79 247.468C1354.95 246.959 1355.21 246.49 1355.56 246.091C1355.91 245.692 1356.34 245.374 1356.82 245.155C1357.3 244.937 1357.82 244.824 1358.34 244.824C1358.87 244.824 1359.39 244.937 1359.87 245.155C1360.35 245.374 1360.77 245.692 1361.12 246.091C1361.47 246.49 1361.73 246.959 1361.89 247.468C1362.05 247.978 1362.1 248.515 1362.04 249.045C1362.01 250.039 1361.6 250.982 1360.9 251.68C1360.2 252.379 1359.27 252.782 1358.29 252.807C1357.33 252.781 1356.4 252.375 1355.72 251.674C1355.04 250.972 1354.66 250.03 1354.64 249.045ZM1402.37 298.146C1401.92 297.959 1401.45 297.865 1400.96 297.868C1400.48 297.843 1400 297.921 1399.55 298.097C1399.1 298.274 1398.69 298.544 1398.35 298.892C1398 299.239 1397.74 299.656 1397.56 300.114C1397.39 300.573 1397.31 301.063 1397.34 301.554C1397.33 302.047 1397.43 302.535 1397.62 302.99C1397.8 303.445 1398.07 303.858 1398.42 304.204C1398.76 304.55 1399.17 304.822 1399.62 305.005C1400.07 305.187 1400.55 305.275 1401.04 305.266C1401.98 305.222 1402.87 304.822 1403.53 304.144C1404.19 303.466 1404.58 302.56 1404.61 301.604C1404.62 301.114 1404.53 300.627 1404.35 300.173C1404.17 299.718 1403.9 299.304 1403.56 298.957C1403.22 298.608 1402.82 298.333 1402.37 298.146ZM1424.03 312.613C1425 312.639 1425.92 313.049 1426.6 313.757C1427.28 314.464 1427.65 315.412 1427.65 316.399C1427.66 317.362 1427.29 318.288 1426.63 318.978C1425.97 319.668 1425.07 320.066 1424.13 320.085C1423.64 320.109 1423.15 320.033 1422.69 319.863C1422.23 319.692 1421.8 319.43 1421.44 319.091C1421.08 318.753 1420.79 318.345 1420.58 317.891C1420.38 317.438 1420.27 316.948 1420.25 316.449C1420.28 315.44 1420.69 314.479 1421.39 313.765C1422.09 313.05 1423.03 312.638 1424.03 312.613ZM1390.35 188.864C1390.99 188.165 1391.34 187.237 1391.32 186.279C1391.29 185.325 1390.89 184.422 1390.22 183.762C1389.54 183.101 1388.64 182.736 1387.7 182.743C1387.23 182.755 1386.76 182.86 1386.33 183.053C1385.9 183.247 1385.52 183.524 1385.19 183.87C1384.87 184.216 1384.61 184.623 1384.44 185.068C1384.28 185.514 1384.19 185.989 1384.21 186.467C1384.21 186.944 1384.32 187.415 1384.51 187.852C1384.7 188.288 1384.97 188.683 1385.32 189.012C1385.65 189.342 1386.05 189.6 1386.49 189.772C1386.93 189.944 1387.4 190.027 1387.87 190.015C1388.81 189.976 1389.7 189.563 1390.35 188.864ZM1535.59 279.313C1535.54 280.271 1535.13 281.173 1534.45 281.835C1533.76 282.497 1532.86 282.869 1531.91 282.873C1530.98 282.822 1530.09 282.405 1529.45 281.709C1528.81 281.013 1528.45 280.092 1528.46 279.137C1528.47 278.663 1528.58 278.196 1528.77 277.763C1528.96 277.33 1529.23 276.939 1529.57 276.613C1529.91 276.287 1530.31 276.032 1530.74 275.863C1531.18 275.693 1531.64 275.613 1532.11 275.626C1533.05 275.665 1533.93 276.071 1534.58 276.758C1535.23 277.445 1535.59 278.361 1535.59 279.313ZM1391.64 176.125C1392.06 176.303 1392.5 176.397 1392.95 176.4C1393.86 176.421 1394.74 176.083 1395.41 175.457C1396.08 174.83 1396.49 173.964 1396.55 173.04C1396.56 172.087 1396.21 171.166 1395.58 170.47C1394.93 169.773 1394.06 169.355 1393.12 169.304C1392.18 169.304 1391.28 169.68 1390.62 170.352C1389.95 171.024 1389.57 171.936 1389.57 172.889C1389.56 173.346 1389.64 173.799 1389.81 174.223C1389.98 174.647 1390.22 175.033 1390.54 175.36C1390.85 175.686 1391.23 175.946 1391.64 176.125ZM1545.26 268.631C1545.21 269.557 1544.83 270.435 1544.19 271.093C1543.55 271.751 1542.69 272.143 1541.78 272.192C1541.31 272.185 1540.85 272.084 1540.42 271.895C1539.99 271.705 1539.6 271.431 1539.28 271.088C1538.96 270.745 1538.7 270.34 1538.53 269.897C1538.37 269.453 1538.29 268.98 1538.3 268.505C1538.31 268.046 1538.41 267.594 1538.59 267.175C1538.78 266.755 1539.04 266.377 1539.37 266.062C1539.7 265.747 1540.08 265.501 1540.5 265.34C1540.93 265.178 1541.38 265.103 1541.83 265.12C1542.74 265.127 1543.61 265.5 1544.25 266.157C1544.89 266.815 1545.26 267.704 1545.26 268.631ZM1374.72 250.454C1375.25 249.921 1375.56 249.201 1375.58 248.443C1375.56 247.667 1375.24 246.931 1374.69 246.388C1374.14 245.846 1373.41 245.54 1372.65 245.534C1371.9 245.56 1371.19 245.875 1370.66 246.415C1370.14 246.956 1369.83 247.682 1369.81 248.443C1369.82 248.826 1369.89 249.204 1370.04 249.556C1370.19 249.909 1370.41 250.227 1370.68 250.493C1370.95 250.759 1371.27 250.967 1371.62 251.107C1371.97 251.245 1372.35 251.312 1372.72 251.302C1373.47 251.289 1374.18 250.986 1374.72 250.454ZM1483.22 316.777C1483.97 316.761 1484.7 317.034 1485.26 317.541C1485.82 318.048 1486.17 318.752 1486.23 319.51C1486.23 320.272 1485.94 321.006 1485.44 321.569C1484.93 322.133 1484.24 322.489 1483.5 322.569C1483.1 322.593 1482.72 322.536 1482.35 322.402C1481.99 322.268 1481.65 322.06 1481.37 321.791C1481.08 321.521 1480.86 321.195 1480.7 320.833C1480.54 320.471 1480.46 320.081 1480.46 319.685C1480.45 319.308 1480.51 318.932 1480.64 318.58C1480.77 318.227 1480.98 317.906 1481.23 317.634C1481.49 317.363 1481.8 317.147 1482.14 316.999C1482.48 316.852 1482.85 316.776 1483.22 316.777ZM1526.31 310.207C1525.57 310.174 1524.87 309.849 1524.37 309.301C1523.86 308.753 1523.58 308.025 1523.6 307.273C1523.61 306.899 1523.69 306.53 1523.84 306.188C1523.99 305.846 1524.21 305.538 1524.48 305.282C1524.75 305.025 1525.06 304.826 1525.41 304.694C1525.75 304.562 1526.12 304.501 1526.48 304.515C1526.88 304.492 1527.27 304.552 1527.63 304.69C1528 304.829 1528.33 305.043 1528.61 305.32C1528.89 305.597 1529.11 305.93 1529.25 306.298C1529.4 306.665 1529.47 307.06 1529.46 307.457C1529.44 307.853 1529.35 308.243 1529.19 308.601C1529.02 308.959 1528.77 309.277 1528.48 309.536C1528.19 309.795 1527.84 309.988 1527.47 310.103C1527.09 310.219 1526.7 310.254 1526.31 310.207ZM1546.8 225.69C1547.33 225.154 1547.63 224.427 1547.63 223.669C1547.63 222.911 1547.33 222.183 1546.8 221.647C1546.27 221.111 1545.56 220.81 1544.81 220.81C1544.07 220.81 1543.35 221.111 1542.83 221.647C1542.3 222.183 1542 222.911 1542 223.669C1542 224.427 1542.3 225.154 1542.83 225.69C1543.35 226.226 1544.07 226.528 1544.81 226.528C1545.56 226.528 1546.27 226.226 1546.8 225.69ZM1368.21 241.848C1368.2 242.608 1367.9 243.335 1367.37 243.871C1366.84 244.406 1366.12 244.706 1365.37 244.706C1364.99 244.743 1364.6 244.698 1364.23 244.573C1363.86 244.448 1363.52 244.247 1363.24 243.981C1362.95 243.716 1362.72 243.392 1362.56 243.031C1362.4 242.67 1362.32 242.28 1362.32 241.885C1362.32 241.491 1362.4 241.101 1362.56 240.74C1362.72 240.379 1362.95 240.055 1363.24 239.789C1363.52 239.524 1363.86 239.322 1364.23 239.198C1364.6 239.073 1364.99 239.027 1365.37 239.064C1366.11 239.064 1366.82 239.354 1367.34 239.873C1367.87 240.392 1368.18 241.1 1368.21 241.848ZM1494.28 325.665C1494.8 325.138 1495.11 324.424 1495.14 323.673C1495.12 322.91 1494.8 322.185 1494.26 321.655C1493.72 321.125 1493 320.832 1492.25 320.839C1491.51 320.839 1490.8 321.137 1490.27 321.667C1489.74 322.198 1489.44 322.919 1489.44 323.673C1489.45 324.433 1489.76 325.157 1490.3 325.688C1490.83 326.219 1491.55 326.513 1492.3 326.506C1493.04 326.494 1493.75 326.193 1494.28 325.665ZM1365.1 206.414C1364.74 206.422 1364.37 206.352 1364.03 206.208C1363.69 206.064 1363.38 205.85 1363.12 205.579C1362.87 205.308 1362.67 204.986 1362.55 204.633C1362.42 204.281 1362.36 203.905 1362.39 203.531C1362.39 203.158 1362.47 202.789 1362.62 202.447C1362.76 202.105 1362.98 201.797 1363.24 201.542C1363.51 201.286 1363.83 201.088 1364.17 200.961C1364.52 200.833 1364.88 200.777 1365.25 200.797C1365.62 200.793 1365.99 200.867 1366.33 201.013C1366.67 201.16 1366.98 201.377 1367.23 201.65C1367.49 201.923 1367.68 202.247 1367.81 202.6C1367.93 202.954 1367.99 203.331 1367.97 203.706C1367.97 204.081 1367.9 204.452 1367.75 204.796C1367.61 205.14 1367.39 205.45 1367.12 205.705C1366.85 205.96 1366.53 206.155 1366.19 206.277C1365.84 206.399 1365.47 206.446 1365.1 206.414ZM1394.15 292.642C1394.67 292.106 1394.97 291.379 1394.97 290.62C1394.97 289.862 1394.67 289.135 1394.15 288.599C1393.62 288.063 1392.91 287.762 1392.16 287.762C1391.41 287.762 1390.7 288.063 1390.17 288.599C1389.64 289.135 1389.35 289.862 1389.35 290.62C1389.35 291.379 1389.64 292.106 1390.17 292.642C1390.7 293.178 1391.41 293.479 1392.16 293.479C1392.91 293.479 1393.62 293.178 1394.15 292.642ZM1552.24 215.267C1552.21 216.028 1551.89 216.748 1551.34 217.269C1550.8 217.79 1550.07 218.072 1549.33 218.051C1548.61 217.995 1547.95 217.67 1547.46 217.142C1546.97 216.613 1546.7 215.918 1546.69 215.192C1546.65 214.799 1546.69 214.403 1546.82 214.029C1546.94 213.655 1547.14 213.311 1547.4 213.019C1547.66 212.727 1547.98 212.494 1548.34 212.334C1548.69 212.175 1549.07 212.093 1549.46 212.093C1549.85 212.093 1550.23 212.175 1550.59 212.334C1550.94 212.494 1551.26 212.727 1551.52 213.019C1551.78 213.311 1551.98 213.655 1552.11 214.029C1552.23 214.403 1552.27 214.799 1552.24 215.192V215.267ZM1447.65 323.012C1448.01 323.137 1448.4 323.183 1448.79 323.145C1449.48 323.079 1450.12 322.753 1450.59 322.231C1451.06 321.71 1451.32 321.03 1451.32 320.324C1451.32 319.619 1451.06 318.939 1450.59 318.417C1450.12 317.895 1449.48 317.569 1448.79 317.503C1448.4 317.466 1448.01 317.511 1447.65 317.636C1447.28 317.761 1446.94 317.963 1446.65 318.229C1446.37 318.494 1446.14 318.818 1445.98 319.178C1445.82 319.539 1445.74 319.93 1445.74 320.324C1445.74 320.719 1445.82 321.109 1445.98 321.47C1446.14 321.831 1446.37 322.154 1446.65 322.42C1446.94 322.685 1447.28 322.887 1447.65 323.012ZM1437.52 316.952C1438.26 317.033 1438.94 317.391 1439.44 317.957C1439.93 318.523 1440.19 319.256 1440.18 320.011C1440.1 320.716 1439.75 321.361 1439.22 321.82C1438.69 322.278 1438 322.517 1437.31 322.489C1436.61 322.46 1435.95 322.167 1435.45 321.666C1434.96 321.166 1434.66 320.495 1434.63 319.785C1434.66 319.025 1434.97 318.304 1435.51 317.775C1436.05 317.247 1436.77 316.951 1437.52 316.952ZM1520.25 175.17C1519.52 175.15 1518.83 174.838 1518.33 174.301C1517.83 173.765 1517.56 173.05 1517.58 172.311C1517.6 171.573 1517.91 170.873 1518.44 170.365C1518.97 169.857 1519.67 169.583 1520.39 169.603C1520.75 169.613 1521.11 169.695 1521.44 169.844C1521.77 169.993 1522.06 170.206 1522.31 170.472C1522.56 170.737 1522.75 171.049 1522.88 171.391C1523.01 171.732 1523.07 172.096 1523.06 172.462C1523.05 172.827 1522.97 173.187 1522.82 173.521C1522.68 173.855 1522.47 174.157 1522.21 174.408C1521.94 174.659 1521.64 174.856 1521.3 174.987C1520.96 175.118 1520.61 175.18 1520.25 175.17ZM1503.98 160.489C1504.47 159.967 1504.75 159.271 1504.76 158.545C1504.76 158.169 1504.69 157.795 1504.54 157.449C1504.4 157.102 1504.19 156.79 1503.92 156.531C1503.65 156.272 1503.33 156.072 1502.98 155.944C1502.64 155.816 1502.27 155.762 1501.89 155.787C1501.18 155.799 1500.5 156.09 1500 156.599C1499.5 157.109 1499.2 157.797 1499.18 158.52C1499.21 159.282 1499.54 160.003 1500.08 160.531C1500.62 161.06 1501.34 161.354 1502.09 161.353C1502.81 161.321 1503.48 161.012 1503.98 160.489ZM1439.98 143.122C1439.98 143.867 1439.69 144.581 1439.18 145.108C1438.66 145.635 1437.96 145.931 1437.22 145.931C1436.49 145.931 1435.79 145.635 1435.27 145.108C1434.75 144.581 1434.46 143.867 1434.46 143.122C1434.5 142.399 1434.8 141.715 1435.3 141.199C1435.8 140.682 1436.46 140.367 1437.17 140.314C1437.9 140.332 1438.6 140.632 1439.12 141.154C1439.65 141.675 1439.96 142.379 1439.98 143.122ZM1388.82 282.434C1389.33 281.912 1389.62 281.204 1389.62 280.466C1389.62 279.728 1389.33 279.019 1388.82 278.498C1388.3 277.976 1387.61 277.682 1386.88 277.682C1386.15 277.682 1385.46 277.976 1384.94 278.498C1384.43 279.019 1384.15 279.728 1384.15 280.466C1384.15 281.204 1384.43 281.912 1384.94 282.434C1385.46 282.956 1386.15 283.249 1386.88 283.249C1387.61 283.249 1388.3 282.956 1388.82 282.434ZM1537.34 177.201C1538.09 177.22 1538.8 177.53 1539.33 178.067C1539.85 178.603 1540.16 179.326 1540.18 180.085C1540.12 180.805 1539.81 181.48 1539.3 181.987C1538.79 182.493 1538.12 182.797 1537.41 182.843C1537.04 182.84 1536.68 182.763 1536.34 182.616C1536 182.469 1535.69 182.256 1535.43 181.988C1535.18 181.72 1534.97 181.403 1534.83 181.055C1534.69 180.707 1534.62 180.335 1534.63 179.959C1534.66 179.238 1534.95 178.554 1535.45 178.043C1535.96 177.532 1536.63 177.232 1537.34 177.201ZM1398.3 179.592C1397.8 179.06 1397.12 178.75 1396.4 178.73C1395.68 178.711 1394.98 178.982 1394.46 179.485C1393.94 179.988 1393.63 180.682 1393.62 181.414C1393.6 182.145 1393.86 182.855 1394.36 183.386C1394.85 183.918 1395.54 184.227 1396.25 184.247C1396.97 184.267 1397.67 183.996 1398.19 183.493C1398.72 182.99 1399.02 182.296 1399.04 181.564C1399.06 180.833 1398.79 180.123 1398.3 179.592ZM1544.74 257.72C1544.74 258.452 1544.45 259.154 1543.94 259.671C1543.44 260.188 1542.75 260.479 1542.02 260.479C1541.31 260.479 1540.62 260.188 1540.11 259.671C1539.6 259.154 1539.31 258.452 1539.31 257.72C1539.31 256.989 1539.6 256.287 1540.11 255.77C1540.62 255.253 1541.31 254.962 1542.02 254.962C1542.75 254.962 1543.44 255.253 1543.94 255.77C1544.45 256.287 1544.74 256.989 1544.74 257.72ZM1403.55 165.415C1403.21 165.296 1402.85 165.254 1402.5 165.291C1401.76 165.323 1401.07 165.646 1400.57 166.189C1400.06 166.732 1399.79 167.454 1399.81 168.199C1399.9 168.889 1400.23 169.523 1400.74 169.983C1401.25 170.444 1401.91 170.701 1402.59 170.707C1403.3 170.675 1403.96 170.371 1404.44 169.858C1404.93 169.345 1405.2 168.662 1405.21 167.949C1405.23 167.585 1405.17 167.22 1405.05 166.88C1404.92 166.54 1404.71 166.233 1404.46 165.979C1404.2 165.726 1403.89 165.534 1403.55 165.415ZM1535.39 269.332C1535.34 270.046 1535.01 270.711 1534.48 271.181C1533.95 271.651 1533.26 271.888 1532.55 271.84C1531.88 271.801 1531.25 271.501 1530.79 271.001C1530.33 270.501 1530.08 269.84 1530.09 269.157C1530.11 268.427 1530.4 267.732 1530.91 267.218C1531.42 266.705 1532.11 266.411 1532.83 266.398C1533.55 266.45 1534.22 266.786 1534.7 267.334C1535.18 267.882 1535.43 268.599 1535.39 269.332ZM1373.77 203.546C1373.67 203.831 1373.63 204.134 1373.66 204.435C1373.64 204.744 1373.68 205.054 1373.78 205.345C1373.89 205.636 1374.05 205.9 1374.27 206.118C1374.49 206.336 1374.75 206.503 1375.04 206.606C1375.32 206.71 1375.63 206.747 1375.93 206.717C1376.24 206.728 1376.55 206.667 1376.83 206.539C1377.11 206.41 1377.36 206.217 1377.56 205.975C1377.76 205.733 1377.9 205.447 1377.97 205.141C1378.04 204.835 1378.05 204.516 1377.98 204.209C1377.98 203.927 1377.93 203.647 1377.82 203.388C1377.71 203.128 1377.55 202.893 1377.35 202.7C1377.15 202.507 1376.91 202.358 1376.65 202.264C1376.39 202.17 1376.11 202.132 1375.83 202.153C1375.54 202.133 1375.24 202.179 1374.96 202.288C1374.68 202.397 1374.43 202.566 1374.23 202.783C1374.02 203 1373.86 203.26 1373.77 203.546ZM1377.26 240.919C1377.27 241.215 1377.21 241.507 1377.1 241.779C1376.98 242.051 1376.81 242.296 1376.6 242.499C1376.39 242.702 1376.14 242.858 1375.87 242.957C1375.6 243.057 1375.31 243.097 1375.02 243.076C1374.43 243.076 1373.87 242.841 1373.46 242.422C1373.05 242.004 1372.82 241.436 1372.82 240.844C1372.82 240.252 1373.05 239.685 1373.46 239.266C1373.87 238.848 1374.43 238.612 1375.02 238.612C1375.32 238.594 1375.62 238.641 1375.9 238.751C1376.19 238.861 1376.44 239.03 1376.65 239.248C1376.87 239.467 1377.03 239.729 1377.13 240.017C1377.24 240.305 1377.28 240.613 1377.26 240.919ZM1392.74 315.669C1393.02 315.765 1393.32 315.8 1393.62 315.772C1393.9 315.757 1394.17 315.683 1394.43 315.556C1394.68 315.429 1394.91 315.251 1395.09 315.034C1395.27 314.816 1395.41 314.562 1395.5 314.288C1395.58 314.014 1395.62 313.726 1395.59 313.44C1395.62 313.125 1395.59 312.806 1395.49 312.506C1395.39 312.206 1395.23 311.931 1395.02 311.699C1394.8 311.468 1394.54 311.286 1394.25 311.166C1393.96 311.046 1393.66 310.991 1393.34 311.003C1393.03 311.016 1392.72 311.097 1392.45 311.24C1392.17 311.383 1391.93 311.586 1391.73 311.833C1391.54 312.082 1391.4 312.369 1391.33 312.676C1391.25 312.984 1391.24 313.304 1391.3 313.615C1391.3 313.916 1391.36 314.214 1391.47 314.49C1391.6 314.765 1391.77 315.013 1391.99 315.216C1392.2 315.419 1392.46 315.573 1392.74 315.669ZM1371.39 231.441C1371.1 231.449 1370.81 231.394 1370.53 231.279C1370.26 231.164 1370.02 230.992 1369.82 230.774C1369.62 230.555 1369.47 230.297 1369.37 230.014C1369.28 229.731 1369.24 229.431 1369.27 229.134C1369.27 228.549 1369.5 227.987 1369.91 227.573C1370.31 227.16 1370.87 226.927 1371.44 226.927C1372.02 226.927 1372.57 227.16 1372.97 227.573C1373.38 227.987 1373.61 228.549 1373.61 229.134C1373.64 229.439 1373.6 229.746 1373.5 230.035C1373.39 230.322 1373.23 230.585 1373.02 230.804C1372.81 231.023 1372.56 231.193 1372.27 231.303C1371.99 231.413 1371.69 231.46 1371.39 231.441ZM1408.91 312.764C1410.24 312.764 1411.05 311.861 1411.05 310.256C1411.03 309.977 1410.96 309.704 1410.83 309.456C1410.7 309.207 1410.52 308.988 1410.31 308.812C1410.09 308.636 1409.84 308.506 1409.58 308.431C1409.31 308.356 1409.03 308.337 1408.76 308.376C1408.23 308.449 1407.74 308.722 1407.39 309.14C1407.05 309.558 1406.86 310.092 1406.88 310.638C1406.9 311.184 1407.12 311.704 1407.49 312.097C1407.87 312.49 1408.37 312.728 1408.91 312.764ZM1416.68 326.18C1416.97 326.181 1417.26 326.245 1417.52 326.368C1417.79 326.491 1418.03 326.669 1418.22 326.892C1418.42 327.114 1418.56 327.376 1418.65 327.659C1418.73 327.943 1418.76 328.242 1418.73 328.537C1418.71 329.115 1418.46 329.663 1418.04 330.057C1417.63 330.452 1417.07 330.663 1416.5 330.643C1415.93 330.623 1415.4 330.375 1415.01 329.951C1414.62 329.528 1414.41 328.965 1414.43 328.386C1414.43 326.907 1415.32 326.18 1416.68 326.18ZM1487.17 313.175C1487.05 313.448 1486.99 313.743 1487 314.041C1486.97 314.339 1487 314.638 1487.1 314.921C1487.19 315.204 1487.34 315.463 1487.55 315.681C1487.75 315.899 1487.99 316.072 1488.26 316.187C1488.53 316.302 1488.82 316.357 1489.12 316.348C1489.41 316.371 1489.71 316.328 1489.98 316.224C1490.26 316.12 1490.51 315.956 1490.72 315.744C1490.93 315.533 1491.09 315.277 1491.19 314.996C1491.29 314.715 1491.34 314.415 1491.31 314.117C1491.33 313.835 1491.3 313.553 1491.2 313.287C1491.11 313.021 1490.97 312.778 1490.78 312.572C1490.58 312.367 1490.35 312.205 1490.1 312.095C1489.84 311.985 1489.57 311.931 1489.29 311.935C1489 311.899 1488.7 311.927 1488.42 312.017C1488.15 312.107 1487.89 312.257 1487.67 312.456C1487.45 312.656 1487.28 312.901 1487.17 313.175ZM1523.28 298.044C1523.22 298.585 1522.97 299.086 1522.57 299.45C1522.17 299.814 1521.66 300.016 1521.12 300.016C1520.58 300.016 1520.07 299.814 1519.67 299.45C1519.27 299.086 1519.02 298.585 1518.96 298.044C1518.94 297.744 1518.97 297.442 1519.08 297.159C1519.18 296.876 1519.34 296.619 1519.55 296.406C1519.76 296.193 1520.01 296.03 1520.29 295.927C1520.57 295.824 1520.86 295.785 1521.16 295.812C1521.44 295.808 1521.73 295.864 1521.99 295.976C1522.26 296.088 1522.5 296.253 1522.69 296.462C1522.89 296.671 1523.05 296.92 1523.15 297.191C1523.25 297.463 1523.29 297.753 1523.28 298.044ZM1502.85 313.623C1502.97 313.363 1503.04 313.079 1503.06 312.789C1503.06 311.285 1502.34 310.432 1500.98 310.382C1500.69 310.356 1500.4 310.395 1500.12 310.494C1499.85 310.594 1499.6 310.752 1499.39 310.959C1499.17 311.166 1499.01 311.416 1498.9 311.693C1498.8 311.97 1498.75 312.267 1498.77 312.563C1498.74 312.843 1498.77 313.126 1498.85 313.393C1498.94 313.66 1499.08 313.905 1499.27 314.113C1499.45 314.322 1499.68 314.487 1499.93 314.601C1500.18 314.714 1500.46 314.772 1500.74 314.77C1501.02 314.809 1501.31 314.787 1501.58 314.706C1501.85 314.625 1502.11 314.487 1502.33 314.301C1502.54 314.114 1502.72 313.883 1502.85 313.623ZM1414.21 316.45C1414.5 316.436 1414.79 316.483 1415.06 316.589C1415.33 316.694 1415.58 316.856 1415.79 317.063C1415.99 317.271 1416.15 317.519 1416.26 317.794C1416.37 318.068 1416.42 318.362 1416.41 318.657C1416.41 319.235 1416.18 319.79 1415.78 320.199C1415.37 320.609 1414.83 320.838 1414.26 320.838C1413.69 320.838 1413.14 320.609 1412.74 320.199C1412.34 319.79 1412.12 319.235 1412.12 318.657C1412.01 317.353 1412.85 316.65 1414.21 316.45ZM1448.09 146.522C1447.86 146.884 1447.74 147.307 1447.76 147.736C1447.75 148.017 1447.8 148.296 1447.9 148.556C1448.01 148.817 1448.16 149.053 1448.36 149.25C1448.55 149.448 1448.78 149.602 1449.04 149.704C1449.3 149.806 1449.57 149.853 1449.85 149.843C1450.27 149.847 1450.69 149.724 1451.04 149.488C1451.39 149.252 1451.67 148.914 1451.83 148.517C1451.99 148.12 1452.04 147.683 1451.95 147.262C1451.87 146.841 1451.67 146.454 1451.36 146.152C1451.07 145.85 1450.68 145.647 1450.27 145.567C1449.85 145.487 1449.42 145.536 1449.03 145.706C1448.65 145.876 1448.32 146.16 1448.09 146.522ZM1542.27 217.372C1542.1 218.751 1541.43 219.504 1540.1 219.454C1539.83 219.472 1539.55 219.43 1539.29 219.331C1539.03 219.231 1538.79 219.077 1538.6 218.877C1538.4 218.678 1538.25 218.439 1538.15 218.174C1538.05 217.911 1538.01 217.629 1538.03 217.347C1538.01 217.049 1538.06 216.752 1538.17 216.475C1538.28 216.199 1538.45 215.95 1538.66 215.746C1538.87 215.543 1539.13 215.39 1539.41 215.298C1539.69 215.207 1539.98 215.178 1540.27 215.216C1540.55 215.219 1540.81 215.277 1541.06 215.388C1541.31 215.5 1541.54 215.661 1541.73 215.862C1541.91 216.063 1542.06 216.301 1542.15 216.56C1542.24 216.82 1542.29 217.096 1542.27 217.372ZM1441.21 153.402C1441.31 153.122 1441.36 152.825 1441.34 152.527C1441.37 152.241 1441.34 151.952 1441.25 151.68C1441.16 151.407 1441.01 151.158 1440.81 150.948C1440.62 150.739 1440.38 150.575 1440.12 150.466C1439.86 150.358 1439.58 150.308 1439.29 150.321C1439.02 150.292 1438.74 150.323 1438.48 150.413C1438.22 150.503 1437.98 150.649 1437.78 150.842C1437.58 151.035 1437.42 151.27 1437.31 151.53C1437.21 151.791 1437.16 152.071 1437.17 152.352C1437.13 152.647 1437.15 152.947 1437.23 153.234C1437.31 153.521 1437.45 153.787 1437.64 154.016C1437.83 154.245 1438.06 154.431 1438.32 154.564C1438.58 154.696 1438.87 154.77 1439.16 154.783C1439.46 154.795 1439.75 154.745 1440.02 154.635C1440.29 154.526 1440.54 154.359 1440.75 154.147C1440.95 153.934 1441.11 153.681 1441.21 153.402ZM1539.63 203.482C1541.06 203.482 1541.83 204.234 1541.9 205.563C1541.94 205.846 1541.91 206.133 1541.83 206.405C1541.75 206.676 1541.6 206.925 1541.41 207.133C1541.22 207.342 1540.99 207.505 1540.72 207.611C1540.47 207.716 1540.18 207.762 1539.91 207.745C1539.62 207.774 1539.34 207.741 1539.08 207.65C1538.81 207.559 1538.57 207.411 1538.36 207.217C1538.16 207.022 1537.99 206.785 1537.89 206.521C1537.78 206.258 1537.72 205.974 1537.74 205.689C1537.72 205.417 1537.75 205.143 1537.83 204.884C1537.92 204.625 1538.05 204.386 1538.23 204.181C1538.41 203.975 1538.62 203.808 1538.86 203.688C1539.1 203.568 1539.37 203.498 1539.63 203.482ZM1511.86 309.647C1512.11 309.745 1512.38 309.79 1512.65 309.779C1512.92 309.77 1513.19 309.706 1513.43 309.59C1513.68 309.475 1513.9 309.312 1514.08 309.109C1514.27 308.906 1514.41 308.667 1514.5 308.408C1514.59 308.149 1514.64 307.874 1514.62 307.598C1514.63 307.331 1514.59 307.066 1514.49 306.818C1514.39 306.571 1514.24 306.347 1514.06 306.162C1513.87 305.977 1513.64 305.835 1513.4 305.745C1513.15 305.656 1512.88 305.62 1512.62 305.642C1512.35 305.619 1512.07 305.658 1511.81 305.756C1511.55 305.853 1511.31 306.008 1511.11 306.209C1510.92 306.41 1510.77 306.652 1510.68 306.918C1510.59 307.184 1510.55 307.468 1510.58 307.749C1510.58 308.022 1510.63 308.292 1510.74 308.543C1510.84 308.795 1510.99 309.022 1511.19 309.212C1511.38 309.402 1511.61 309.55 1511.86 309.647ZM1372.87 216.394C1372.7 217.648 1372.04 218.526 1370.75 218.475C1370.47 218.488 1370.2 218.439 1369.94 218.334C1369.69 218.228 1369.45 218.067 1369.26 217.863C1369.08 217.658 1368.93 217.414 1368.85 217.147C1368.76 216.881 1368.72 216.599 1368.75 216.319C1368.74 216.053 1368.79 215.787 1368.88 215.539C1368.98 215.291 1369.12 215.065 1369.31 214.877C1369.49 214.688 1369.72 214.541 1369.96 214.444C1370.2 214.347 1370.47 214.302 1370.73 214.313C1371 214.299 1371.28 214.343 1371.54 214.441C1371.8 214.54 1372.04 214.691 1372.24 214.886C1372.44 215.08 1372.6 215.315 1372.71 215.574C1372.82 215.833 1372.87 216.112 1372.87 216.394ZM1515.87 163.321C1516.23 162.94 1516.44 162.435 1516.45 161.906C1516.43 161.386 1516.21 160.893 1515.85 160.522C1515.49 160.152 1515.01 159.93 1514.5 159.9C1513.97 159.9 1513.46 160.114 1513.09 160.494C1512.71 160.875 1512.5 161.392 1512.5 161.931C1512.5 162.47 1512.71 162.986 1513.09 163.367C1513.46 163.748 1513.97 163.962 1514.5 163.962C1515.02 163.931 1515.51 163.702 1515.87 163.321ZM1463.96 145.832C1463.97 146.096 1463.92 146.359 1463.82 146.604C1463.73 146.849 1463.58 147.072 1463.4 147.258C1463.21 147.443 1462.99 147.588 1462.75 147.684C1462.5 147.78 1462.25 147.823 1461.99 147.813C1461.73 147.827 1461.47 147.786 1461.23 147.693C1460.98 147.601 1460.77 147.458 1460.58 147.274C1460.39 147.091 1460.25 146.87 1460.15 146.626C1460.05 146.382 1460.01 146.12 1460.01 145.857C1459.99 145.578 1460.02 145.296 1460.11 145.032C1460.21 144.768 1460.36 144.529 1460.55 144.332C1460.75 144.135 1460.99 143.985 1461.25 143.893C1461.51 143.801 1461.79 143.769 1462.06 143.801C1462.32 143.797 1462.58 143.847 1462.81 143.949C1463.05 144.052 1463.27 144.202 1463.45 144.393C1463.63 144.584 1463.76 144.811 1463.85 145.058C1463.94 145.306 1463.98 145.569 1463.96 145.832ZM1500.44 143.7C1500.39 142.447 1499.58 141.895 1498.44 141.72C1497.92 141.732 1497.43 141.952 1497.06 142.332C1496.7 142.711 1496.49 143.221 1496.49 143.751C1496.47 144.017 1496.5 144.287 1496.59 144.54C1496.67 144.793 1496.81 145.024 1496.99 145.216C1497.18 145.409 1497.4 145.56 1497.64 145.658C1497.89 145.755 1498.15 145.797 1498.42 145.782C1498.69 145.81 1498.97 145.775 1499.23 145.68C1499.49 145.585 1499.73 145.432 1499.92 145.232C1500.11 145.033 1500.26 144.791 1500.35 144.526C1500.44 144.262 1500.47 143.979 1500.44 143.7ZM1487.22 147.21C1485.91 147.21 1485.17 146.558 1485.12 145.329C1485.12 144.804 1485.33 144.3 1485.69 143.928C1486.06 143.557 1486.55 143.348 1487.07 143.348C1487.59 143.348 1488.08 143.557 1488.45 143.928C1488.82 144.3 1489.02 144.804 1489.02 145.329C1489.03 145.574 1488.99 145.817 1488.9 146.045C1488.81 146.273 1488.68 146.481 1488.51 146.656C1488.34 146.831 1488.14 146.97 1487.92 147.066C1487.7 147.161 1487.46 147.21 1487.22 147.21ZM1523.38 162.883C1524.51 162.808 1525.18 162.08 1525.18 160.526C1525.08 160.051 1524.81 159.631 1524.42 159.344C1524.03 159.056 1523.56 158.922 1523.08 158.965C1522.6 159.008 1522.16 159.225 1521.83 159.577C1521.5 159.928 1521.3 160.391 1521.28 160.877C1521.26 161.156 1521.3 161.438 1521.4 161.699C1521.5 161.961 1521.66 162.196 1521.86 162.389C1522.06 162.582 1522.3 162.726 1522.56 162.811C1522.83 162.897 1523.1 162.921 1523.38 162.883ZM1536.43 191.671C1536.81 191.686 1537.19 191.819 1537.5 192.052C1537.81 192.284 1538.05 192.606 1538.18 192.976C1538.31 193.347 1538.33 193.748 1538.24 194.13C1538.14 194.512 1537.94 194.857 1537.66 195.121C1537.37 195.384 1537.01 195.555 1536.62 195.611C1536.24 195.667 1535.85 195.605 1535.5 195.434C1535.15 195.263 1534.86 194.99 1534.67 194.651C1534.47 194.311 1534.38 193.919 1534.41 193.527C1534.4 193.264 1534.45 193.003 1534.55 192.762C1534.66 192.521 1534.8 192.304 1535 192.128C1535.19 191.952 1535.42 191.82 1535.66 191.741C1535.91 191.663 1536.17 191.638 1536.43 191.671ZM1372.92 254.991C1372.7 254.899 1372.45 254.855 1372.2 254.862C1371.95 254.848 1371.7 254.887 1371.47 254.976C1371.24 255.064 1371.02 255.201 1370.84 255.377C1370.66 255.554 1370.52 255.766 1370.42 256.001C1370.33 256.236 1370.28 256.488 1370.28 256.743C1370.25 257.013 1370.28 257.287 1370.36 257.546C1370.44 257.806 1370.58 258.045 1370.75 258.248C1370.93 258.451 1371.15 258.613 1371.39 258.725C1371.64 258.836 1371.9 258.893 1372.17 258.893C1372.44 258.893 1372.7 258.836 1372.95 258.725C1373.19 258.613 1373.41 258.451 1373.59 258.248C1373.77 258.045 1373.9 257.806 1373.98 257.546C1374.06 257.287 1374.09 257.013 1374.06 256.743C1374.06 256.494 1374.02 256.246 1373.93 256.015C1373.84 255.784 1373.7 255.574 1373.53 255.398C1373.36 255.221 1373.15 255.083 1372.92 254.991ZM1476.14 325.629C1475.77 325.639 1475.39 325.534 1475.08 325.33C1474.75 325.125 1474.5 324.829 1474.35 324.478C1474.19 324.128 1474.14 323.738 1474.2 323.359C1474.26 322.979 1474.43 322.626 1474.69 322.344C1474.95 322.062 1475.28 321.864 1475.64 321.773C1476.01 321.682 1476.4 321.704 1476.75 321.835C1477.11 321.966 1477.42 322.201 1477.64 322.51C1477.87 322.819 1478 323.189 1478.02 323.573C1478.04 323.835 1478 324.097 1477.91 324.344C1477.83 324.592 1477.69 324.818 1477.52 325.011C1477.34 325.204 1477.13 325.357 1476.89 325.464C1476.66 325.57 1476.4 325.626 1476.14 325.629ZM1423.66 153.028C1424.82 153.103 1425.34 152.275 1425.56 151.172C1425.56 150.924 1425.51 150.678 1425.42 150.448C1425.33 150.219 1425.19 150.01 1425.02 149.835C1424.85 149.66 1424.65 149.521 1424.42 149.428C1424.19 149.334 1423.95 149.288 1423.71 149.291C1423.46 149.273 1423.21 149.309 1422.98 149.395C1422.75 149.481 1422.54 149.617 1422.37 149.793C1422.19 149.968 1422.06 150.18 1421.97 150.414C1421.88 150.647 1421.84 150.897 1421.86 151.147C1421.84 151.395 1421.87 151.645 1421.95 151.88C1422.03 152.115 1422.16 152.329 1422.33 152.508C1422.5 152.686 1422.71 152.825 1422.94 152.915C1423.17 153.005 1423.41 153.043 1423.66 153.028ZM1546.04 231.141C1546.22 230.062 1546.76 229.26 1547.92 229.285C1548.17 229.274 1548.41 229.316 1548.64 229.406C1548.86 229.497 1549.07 229.636 1549.24 229.813C1549.42 229.991 1549.55 230.202 1549.64 230.435C1549.72 230.668 1549.76 230.917 1549.75 231.166C1549.77 231.416 1549.73 231.668 1549.65 231.905C1549.57 232.142 1549.44 232.358 1549.26 232.536C1549.09 232.716 1548.88 232.854 1548.65 232.942C1548.42 233.03 1548.17 233.066 1547.92 233.047C1547.42 233.04 1546.95 232.837 1546.6 232.481C1546.25 232.125 1546.05 231.644 1546.04 231.141ZM1526.12 288.516C1527.27 288.616 1527.89 287.989 1528.17 286.835C1528.18 286.594 1528.14 286.353 1528.06 286.125C1527.98 285.898 1527.86 285.689 1527.7 285.511C1527.54 285.334 1527.34 285.191 1527.13 285.091C1526.91 284.991 1526.67 284.936 1526.44 284.93C1526.2 284.896 1525.95 284.917 1525.72 284.991C1525.49 285.065 1525.27 285.191 1525.09 285.358C1524.92 285.526 1524.77 285.732 1524.68 285.961C1524.59 286.191 1524.55 286.438 1524.56 286.685C1524.53 286.912 1524.54 287.145 1524.6 287.367C1524.67 287.588 1524.77 287.794 1524.92 287.968C1525.07 288.142 1525.25 288.282 1525.46 288.377C1525.67 288.471 1525.89 288.518 1526.12 288.516ZM1385.38 194.78C1385.18 196.009 1384.54 196.661 1383.43 196.611C1383.2 196.619 1382.98 196.578 1382.77 196.491C1382.57 196.405 1382.38 196.274 1382.22 196.108C1382.07 195.942 1381.95 195.744 1381.88 195.528C1381.81 195.312 1381.78 195.083 1381.8 194.855C1381.77 194.61 1381.79 194.36 1381.86 194.123C1381.94 193.887 1382.06 193.672 1382.23 193.493C1382.4 193.314 1382.61 193.176 1382.84 193.091C1383.07 193.005 1383.31 192.974 1383.55 193C1384.02 193.005 1384.47 193.193 1384.81 193.523C1385.15 193.854 1385.35 194.303 1385.38 194.78ZM1375.78 265.22C1376.62 265.22 1377.06 264.743 1377.19 263.816C1377.17 263.465 1377.02 263.134 1376.78 262.888C1376.53 262.642 1376.2 262.499 1375.85 262.486C1375.67 262.458 1375.48 262.474 1375.29 262.534C1375.11 262.594 1374.95 262.696 1374.81 262.832C1374.67 262.968 1374.57 263.135 1374.51 263.319C1374.44 263.502 1374.43 263.698 1374.45 263.891C1374.43 264.072 1374.46 264.254 1374.52 264.424C1374.58 264.594 1374.68 264.748 1374.81 264.875C1374.94 265.002 1375.09 265.099 1375.26 265.158C1375.43 265.218 1375.6 265.239 1375.78 265.22ZM1468.23 321.992C1469.14 321.992 1469.63 322.544 1469.63 323.396C1469.65 323.577 1469.63 323.761 1469.57 323.933C1469.51 324.106 1469.42 324.263 1469.3 324.394C1469.17 324.526 1469.02 324.628 1468.85 324.693C1468.69 324.759 1468.51 324.787 1468.33 324.775C1468.13 324.801 1467.94 324.78 1467.76 324.716C1467.57 324.651 1467.4 324.545 1467.27 324.403C1467.13 324.262 1467.03 324.091 1466.97 323.904C1466.91 323.716 1466.89 323.516 1466.92 323.321C1466.94 322.468 1467.54 322.117 1468.23 321.992ZM1546.83 240.217C1547.67 240.292 1548.07 239.716 1548.29 238.913C1548.17 238.161 1547.85 237.559 1547.01 237.509C1546.83 237.478 1546.65 237.489 1546.48 237.539C1546.31 237.588 1546.15 237.677 1546.02 237.797C1545.89 237.918 1545.78 238.067 1545.71 238.234C1545.65 238.402 1545.62 238.582 1545.62 238.762C1545.59 238.942 1545.6 239.126 1545.65 239.302C1545.69 239.479 1545.77 239.642 1545.89 239.782C1546.01 239.921 1546.15 240.032 1546.31 240.107C1546.48 240.183 1546.65 240.22 1546.83 240.217ZM1418.65 155.411C1418.65 155.588 1418.62 155.763 1418.56 155.927C1418.5 156.092 1418.4 156.241 1418.28 156.367C1418.15 156.493 1418.01 156.593 1417.85 156.662C1417.69 156.73 1417.52 156.765 1417.34 156.765C1417.17 156.787 1416.99 156.77 1416.82 156.715C1416.66 156.661 1416.5 156.569 1416.37 156.447C1416.24 156.325 1416.14 156.176 1416.08 156.01C1416.01 155.844 1415.98 155.665 1415.99 155.486C1415.97 155.308 1415.98 155.126 1416.04 154.954C1416.09 154.783 1416.18 154.625 1416.3 154.491C1416.42 154.358 1416.56 154.252 1416.73 154.182C1416.89 154.111 1417.07 154.077 1417.25 154.082C1418.08 154.032 1418.48 154.584 1418.65 155.411Z" fill="url(#paint1_linear_11705_798)"/>
<path d="M-0.000976562 359.275H72.9969V222.905C72.9969 204.246 87.1125 178.817 118.469 178.817C149.826 178.817 163.942 204.246 163.942 222.085V359.275H236.738V221.061C236.738 201.579 251.862 179.227 281.505 179.227C310.341 179.227 327.078 200.348 327.078 221.061V359.275H399.874L400.479 221.061C400.479 148.262 356.922 115.042 305.501 115.042C254.08 115.042 230.487 148.672 223.429 160.362C201.56 121.743 164.143 114.837 143.172 114.836C105.261 114.834 84.6624 133.267 72.9969 147.646V117.914H-0.000976562V359.275Z" fill="url(#paint2_linear_11705_798)"/>
<path d="M427.905 359.275H500.701V118.117H427.905V359.275Z" fill="url(#paint3_linear_11705_798)"/>
<path d="M411.168 101.302V50.2407L513.809 0V58.2382L411.168 101.302Z" fill="url(#paint4_linear_11705_798)"/>
<path d="M527.522 359.275H600.52V222.905C600.52 204.246 614.737 177.176 646.094 177.176C677.45 177.176 691.465 204.246 691.465 222.085V359.275H763.858V222.085C763.858 148.672 725.544 114.836 670.695 114.836C632.785 114.834 612.188 135.113 600.52 149.492V117.914H527.522V359.275Z" fill="url(#paint5_linear_11705_798)"/>
<path d="M792.088 359.275H864.884V118.117H792.088V359.275Z" fill="url(#paint6_linear_11705_798)"/>
<path d="M828.385 92.6889C768.494 92.6889 771.116 12.7139 828.385 12.7139C885.654 12.7139 888.275 92.6889 828.385 92.6889Z" fill="url(#paint7_linear_11705_798)"/>
<path d="M892.914 359.275H965.912V225.571C965.912 206.912 979.927 180.252 1011.28 180.252C1042.64 180.252 1056.86 204.246 1056.86 222.085V359.275H1129.65V223.521C1129.65 204.038 1144.98 179.842 1174.62 179.842C1203.46 179.842 1219.99 200.348 1219.99 221.061V359.275H1292.79L1293.39 221.061C1293.39 148.262 1249.84 115.042 1198.42 115.042C1147 115.042 1123.4 148.672 1116.34 160.362C1094.48 121.743 1057.06 114.837 1036.09 114.836C998.176 114.834 977.579 133.267 965.912 147.646V117.914H892.914V359.275Z" fill="url(#paint8_linear_11705_798)"/>
</g>
<path d="M45.5816 458.097H25.7573L22.1055 468.205H15.8452L32.2785 423.014H39.1257L55.4937 468.205H49.2334L45.5816 458.097ZM43.8861 453.272L35.6695 430.317L27.4528 453.272H43.8861ZM142.735 435.925C141.474 433.274 139.649 431.23 137.257 429.796C134.866 428.317 132.084 427.578 128.91 427.578C125.737 427.578 122.868 428.317 120.303 429.796C117.781 431.23 115.781 433.317 114.303 436.056C112.868 438.751 112.151 441.881 112.151 445.446C112.151 449.011 112.868 452.141 114.303 454.837C115.781 457.532 117.781 459.619 120.303 461.097C122.868 462.532 125.737 463.249 128.91 463.249C133.345 463.249 136.997 461.923 139.866 459.271C142.735 456.619 144.409 453.033 144.887 448.511H126.758V443.686H151.213V448.25C150.865 451.989 149.691 455.424 147.691 458.554C145.691 461.64 143.061 464.097 139.801 465.923C136.54 467.705 132.91 468.596 128.91 468.596C124.693 468.596 120.846 467.618 117.368 465.662C113.89 463.662 111.129 460.901 109.086 457.38C107.086 453.859 106.086 449.881 106.086 445.446C106.086 441.012 107.086 437.034 109.086 433.513C111.129 429.948 113.89 427.187 117.368 425.231C120.846 423.231 124.693 422.231 128.91 422.231C133.736 422.231 137.997 423.427 141.692 425.818C145.431 428.209 148.148 431.578 149.843 435.925H142.735ZM210.641 427.578V442.773H227.205V447.664H210.641V463.314H229.161V468.205H204.707V422.688H229.161V427.578H210.641ZM216.314 414.275L207.25 419.818V415.123L216.314 409.711L225.314 415.123V419.818L216.314 414.275ZM319.524 468.205H313.59L289.723 432.013V468.205H283.788V422.688H289.723L313.59 458.815V422.688H319.524V468.205ZM373.071 445.446C373.071 441.012 374.071 437.034 376.071 433.513C378.07 429.948 380.787 427.165 384.222 425.166C387.7 423.166 391.547 422.166 395.764 422.166C400.72 422.166 405.046 423.361 408.741 425.753C412.437 428.144 415.132 431.535 416.828 435.925H409.72C408.459 433.187 406.633 431.078 404.242 429.6C401.894 428.122 399.068 427.383 395.764 427.383C392.591 427.383 389.743 428.122 387.222 429.6C384.7 431.078 382.722 433.187 381.287 435.925C379.853 438.621 379.135 441.794 379.135 445.446C379.135 449.055 379.853 452.228 381.287 454.967C382.722 457.663 384.7 459.749 387.222 461.227C389.743 462.706 392.591 463.445 395.764 463.445C399.068 463.445 401.894 462.727 404.242 461.293C406.633 459.815 408.459 457.706 409.72 454.967H416.828C415.132 459.315 412.437 462.684 408.741 465.075C405.046 467.423 400.72 468.596 395.764 468.596C391.547 468.596 387.7 467.618 384.222 465.662C380.787 463.662 378.07 460.901 376.071 457.38C374.071 453.859 373.071 449.881 373.071 445.446ZM477.243 422.753V468.205H471.309V422.753H477.243ZM559.872 458.097H540.048L536.396 468.205H530.136L546.569 423.014H553.416L569.784 468.205H563.524L559.872 458.097ZM558.177 453.272L549.96 430.317L541.743 453.272H558.177ZM699.778 422.753C704.735 422.753 709.017 423.687 712.625 425.557C716.277 427.383 719.059 430.013 720.972 433.447C722.928 436.882 723.907 440.925 723.907 445.577C723.907 450.228 722.928 454.272 720.972 457.706C719.059 461.097 716.277 463.705 712.625 465.531C709.017 467.314 704.735 468.205 699.778 468.205H685.628V422.753H699.778ZM699.778 463.314C705.647 463.314 710.125 461.771 713.212 458.684C716.299 455.554 717.842 451.185 717.842 445.577C717.842 439.925 716.277 435.512 713.147 432.339C710.06 429.165 705.604 427.578 699.778 427.578H691.562V463.314H699.778ZM783.316 427.578V442.773H799.88V447.664H783.316V463.314H801.836V468.205H777.382V422.688H801.836V427.578H783.316ZM965.601 423.079V468.205H959.667V434.556L944.668 468.205H940.495L925.431 434.491V468.205H919.497V423.079H925.888L942.582 460.38L959.276 423.079H965.601ZM1048.18 458.097H1028.36L1024.7 468.205H1018.44L1034.88 423.014H1041.72L1058.09 468.205H1051.83L1048.18 458.097ZM1046.48 453.272L1038.27 430.317L1030.05 453.272H1046.48ZM1134.83 468.205L1124.01 449.62H1116.84V468.205H1110.9V422.753H1125.57C1129.01 422.753 1131.9 423.34 1134.25 424.513C1136.64 425.687 1138.42 427.274 1139.6 429.274C1140.77 431.274 1141.36 433.556 1141.36 436.121C1141.36 439.251 1140.44 442.012 1138.62 444.403C1136.83 446.794 1134.14 448.381 1130.53 449.163L1141.94 468.205H1134.83ZM1116.84 444.859H1125.57C1128.79 444.859 1131.2 444.077 1132.81 442.512C1134.42 440.903 1135.23 438.773 1135.23 436.121C1135.23 433.426 1134.42 431.339 1132.81 429.861C1131.25 428.383 1128.84 427.644 1125.57 427.644H1116.84V444.859ZM1220.87 468.205L1202.16 447.468V468.205H1196.22V422.753H1202.16V443.816L1220.94 422.753H1228.44L1207.83 445.512L1228.63 468.205H1220.87ZM1286.84 427.578V442.773H1303.41V447.664H1286.84V463.314H1305.36V468.205H1280.91V422.688H1305.36V427.578H1286.84ZM1387.97 422.753V427.578H1375.58V468.205H1369.64V427.578H1357.19V422.753H1387.97ZM1446.85 422.753V468.205H1440.92V422.753H1446.85ZM1538.35 468.205H1532.42L1508.55 432.013V468.205H1502.62V422.688H1508.55L1532.42 458.815V422.688H1538.35V468.205ZM1628.55 435.925C1627.29 433.274 1625.46 431.23 1623.07 429.796C1620.68 428.317 1617.9 427.578 1614.72 427.578C1611.55 427.578 1608.68 428.317 1606.11 429.796C1603.59 431.23 1601.59 433.317 1600.11 436.056C1598.68 438.751 1597.96 441.881 1597.96 445.446C1597.96 449.011 1598.68 452.141 1600.11 454.837C1601.59 457.532 1603.59 459.619 1606.11 461.097C1608.68 462.532 1611.55 463.249 1614.72 463.249C1619.16 463.249 1622.81 461.923 1625.68 459.271C1628.55 456.619 1630.22 453.033 1630.7 448.511H1612.57V443.686H1637.02V448.25C1636.68 451.989 1635.5 455.424 1633.5 458.554C1631.5 461.64 1628.87 464.097 1625.61 465.923C1622.35 467.705 1618.72 468.596 1614.72 468.596C1610.51 468.596 1606.66 467.618 1603.18 465.662C1599.7 463.662 1596.94 460.901 1594.9 457.38C1592.9 453.859 1591.9 449.881 1591.9 445.446C1591.9 441.012 1592.9 437.034 1594.9 433.513C1596.94 429.948 1599.7 427.187 1603.18 425.231C1606.66 423.231 1610.51 422.231 1614.72 422.231C1619.55 422.231 1623.81 423.427 1627.5 425.818C1631.24 428.209 1633.96 431.578 1635.66 435.925H1628.55Z" fill="white"/>
<defs>
<linearGradient id="paint0_linear_11705_798" x1="1315.88" y1="237.38" x2="1651.39" y2="237.38" gradientUnits="userSpaceOnUse">
<stop stop-color="#FFB026"/>
<stop offset="1" stop-color="#FE8800"/>
</linearGradient>
<linearGradient id="paint1_linear_11705_798" x1="1353.36" y1="237.295" x2="1560.67" y2="237.295" gradientUnits="userSpaceOnUse">
<stop stop-color="#FFB026"/>
<stop offset="1" stop-color="#FE8800"/>
</linearGradient>
<linearGradient id="paint2_linear_11705_798" x1="-0.000976562" y1="237.055" x2="400.479" y2="237.055" gradientUnits="userSpaceOnUse">
<stop stop-color="#FFB026"/>
<stop offset="1" stop-color="#FE8800"/>
</linearGradient>
<linearGradient id="paint3_linear_11705_798" x1="427.905" y1="238.696" x2="500.701" y2="238.696" gradientUnits="userSpaceOnUse">
<stop stop-color="#FFB026"/>
<stop offset="1" stop-color="#FE8800"/>
</linearGradient>
<linearGradient id="paint4_linear_11705_798" x1="411.168" y1="50.6509" x2="513.809" y2="50.6509" gradientUnits="userSpaceOnUse">
<stop stop-color="#FFB026"/>
<stop offset="1" stop-color="#FE8800"/>
</linearGradient>
<linearGradient id="paint5_linear_11705_798" x1="527.522" y1="237.055" x2="763.858" y2="237.055" gradientUnits="userSpaceOnUse">
<stop stop-color="#FFB026"/>
<stop offset="1" stop-color="#FE8800"/>
</linearGradient>
<linearGradient id="paint6_linear_11705_798" x1="792.088" y1="238.696" x2="864.884" y2="238.696" gradientUnits="userSpaceOnUse">
<stop stop-color="#FFB026"/>
<stop offset="1" stop-color="#FE8800"/>
</linearGradient>
<linearGradient id="paint7_linear_11705_798" x1="784.444" y1="52.7014" x2="872.325" y2="52.7014" gradientUnits="userSpaceOnUse">
<stop stop-color="#FFB026"/>
<stop offset="1" stop-color="#FE8800"/>
</linearGradient>
<linearGradient id="paint8_linear_11705_798" x1="892.914" y1="237.055" x2="1293.39" y2="237.055" gradientUnits="userSpaceOnUse">
<stop stop-color="#FFB026"/>
<stop offset="1" stop-color="#FE8800"/>
</linearGradient>
<clipPath id="clip0_11705_798">
<rect width="1653.54" height="410.539" fill="white"/>
</clipPath>
</defs>
</svg>
